G04 #@! TF.GenerationSoftware,KiCad,Pcbnew,5.1.0-rc2-unknown-2768b3d~80~ubuntu18.04.1*
G04 #@! TF.CreationDate,2019-03-01T04:35:57+01:00*
G04 #@! TF.ProjectId,wcube-fan-pcb.,77637562-652d-4666-916e-2d7063622e2e,rev?*
G04 #@! TF.SameCoordinates,Original*
G04 #@! TF.FileFunction,Copper,L2,Bot*
G04 #@! TF.FilePolarity,Positive*
%FSLAX46Y46*%
G04 Gerber Fmt 4.6, Leading zero omitted, Abs format (unit mm)*
G04 Created by KiCad (PCBNEW 5.1.0-rc2-unknown-2768b3d~80~ubuntu18.04.1) date 2019-03-01 04:35:57*
%MOMM*%
%LPD*%
G04 APERTURE LIST*
%ADD10R,3.500000X2.300000*%
%ADD11R,0.600000X1.550000*%
%ADD12R,1.550000X0.600000*%
%ADD13C,1.440000*%
%ADD14R,1.500000X1.145000*%
%ADD15R,1.145000X1.500000*%
%ADD16R,0.800000X0.900000*%
%ADD17O,1.700000X2.000000*%
%ADD18R,1.700000X2.000000*%
%ADD19R,2.235000X2.400000*%
%ADD20C,1.500000*%
%ADD21C,0.500000*%
%ADD22C,1.000000*%
%ADD23C,0.254000*%
G04 APERTURE END LIST*
D10*
X137200000Y-59500000D03*
X131800000Y-59500000D03*
D11*
X124405000Y-59800000D03*
X123135000Y-59800000D03*
X121865000Y-59800000D03*
X120595000Y-59800000D03*
X120595000Y-65200000D03*
X121865000Y-65200000D03*
X123135000Y-65200000D03*
X124405000Y-65200000D03*
D12*
X94300000Y-61095000D03*
X94300000Y-62365000D03*
X94300000Y-63635000D03*
X94300000Y-64905000D03*
X99700000Y-64905000D03*
X99700000Y-63635000D03*
X99700000Y-62365000D03*
X99700000Y-61095000D03*
D13*
X105500000Y-60500000D03*
X102960000Y-63040000D03*
X105500000Y-65580000D03*
X113500000Y-60500000D03*
X110960000Y-63040000D03*
X113500000Y-65580000D03*
D14*
X97750000Y-59292500D03*
X97750000Y-57207500D03*
D15*
X111457500Y-58000000D03*
X113542500Y-58000000D03*
D14*
X105000000Y-56457500D03*
X105000000Y-58542500D03*
X102750000Y-58542500D03*
X102750000Y-56457500D03*
D16*
X116500000Y-60000000D03*
X117450000Y-58000000D03*
X115550000Y-58000000D03*
X108250000Y-58500000D03*
X109200000Y-56500000D03*
X107300000Y-56500000D03*
D17*
X125950000Y-53900000D03*
D18*
X128450000Y-53900000D03*
D17*
X117350000Y-53900000D03*
D18*
X119850000Y-53900000D03*
D17*
X108750000Y-53900000D03*
D18*
X111250000Y-53900000D03*
D17*
X100150000Y-53900000D03*
D18*
X102650000Y-53900000D03*
D17*
X134550000Y-53900000D03*
D18*
X137050000Y-53900000D03*
D17*
X82950000Y-53900000D03*
D18*
X85450000Y-53900000D03*
D17*
X91550000Y-53900000D03*
D18*
X94050000Y-53900000D03*
D14*
X94250000Y-57207500D03*
X94250000Y-59292500D03*
X118250000Y-65542500D03*
X118250000Y-63457500D03*
X126500000Y-60542500D03*
X126500000Y-58457500D03*
D19*
X126932500Y-64500000D03*
X132067500Y-64500000D03*
D14*
X108000000Y-65542500D03*
X108000000Y-63457500D03*
X116000000Y-65542500D03*
X116000000Y-63457500D03*
D20*
X118000000Y-60750000D03*
X134250000Y-62250000D03*
X122750000Y-53000000D03*
D21*
X108750000Y-56050000D02*
X109200000Y-56500000D01*
X108750000Y-53900000D02*
X108750000Y-56050000D01*
X111377500Y-63457500D02*
X110960000Y-63040000D01*
X116000000Y-63457500D02*
X111377500Y-63457500D01*
X110240001Y-62320001D02*
X110960000Y-63040000D01*
X109670000Y-61750000D02*
X110240001Y-62320001D01*
X102250000Y-61750000D02*
X109670000Y-61750000D01*
X99700000Y-62365000D02*
X101635000Y-62365000D01*
X101635000Y-62365000D02*
X102250000Y-61750000D01*
X107822500Y-63635000D02*
X108000000Y-63457500D01*
X103377500Y-63457500D02*
X102960000Y-63040000D01*
X102365000Y-63635000D02*
X99700000Y-63635000D01*
X102960000Y-63040000D02*
X102365000Y-63635000D01*
X103530000Y-63635000D02*
X103707500Y-63457500D01*
X102365000Y-63635000D02*
X103530000Y-63635000D01*
X108000000Y-63457500D02*
X103707500Y-63457500D01*
X103707500Y-63457500D02*
X103377500Y-63457500D01*
D22*
X132067500Y-59767500D02*
X131800000Y-59500000D01*
D21*
X124792500Y-58457500D02*
X126500000Y-58457500D01*
X124405000Y-59800000D02*
X124405000Y-58845000D01*
X124405000Y-58845000D02*
X124792500Y-58457500D01*
X131250000Y-59500000D02*
X131800000Y-59500000D01*
X128750000Y-57000000D02*
X131250000Y-59500000D01*
X126500000Y-58457500D02*
X126500000Y-57000000D01*
X126500000Y-57000000D02*
X128750000Y-57000000D01*
X126500000Y-57000000D02*
X119250000Y-57000000D01*
X117450000Y-58000000D02*
X117500000Y-58000000D01*
X118500000Y-57000000D02*
X119250000Y-57000000D01*
X118250000Y-57250000D02*
X118500000Y-57000000D01*
X117450000Y-58000000D02*
X118250000Y-58000000D01*
X118250000Y-58000000D02*
X118250000Y-57250000D01*
X118250000Y-58000000D02*
X118250000Y-60500000D01*
X132250000Y-62250000D02*
X132067500Y-62067500D01*
D22*
X134250000Y-62250000D02*
X132250000Y-62250000D01*
X132067500Y-64500000D02*
X132067500Y-62067500D01*
X132067500Y-62067500D02*
X132067500Y-59767500D01*
D21*
X106518233Y-60500000D02*
X113500000Y-60500000D01*
X105500000Y-60500000D02*
X106518233Y-60500000D01*
X124405000Y-63925000D02*
X124405000Y-65200000D01*
X123937500Y-63457500D02*
X124405000Y-63925000D01*
X114518233Y-60500000D02*
X113500000Y-60500000D01*
X118072500Y-63457500D02*
X115115000Y-60500000D01*
X115115000Y-60500000D02*
X114518233Y-60500000D01*
X118250000Y-63457500D02*
X118072500Y-63457500D01*
X118250000Y-63457500D02*
X123937500Y-63457500D01*
X101750000Y-60500000D02*
X105500000Y-60500000D01*
X97750000Y-57207500D02*
X99000000Y-57207500D01*
X99000000Y-57207500D02*
X99500000Y-57707500D01*
X99500000Y-57707500D02*
X99500000Y-59500000D01*
X101250000Y-60000000D02*
X101750000Y-60500000D01*
X99500000Y-59500000D02*
X100000000Y-60000000D01*
X100000000Y-60000000D02*
X101250000Y-60000000D01*
X95575000Y-61095000D02*
X94300000Y-61095000D01*
X96000000Y-60670000D02*
X95575000Y-61095000D01*
X96500000Y-57207500D02*
X96000000Y-57707500D01*
X97750000Y-57207500D02*
X96500000Y-57207500D01*
X95957500Y-59292500D02*
X96000000Y-59250000D01*
X94250000Y-59292500D02*
X95957500Y-59292500D01*
X96000000Y-57707500D02*
X96000000Y-59250000D01*
X96000000Y-59250000D02*
X96000000Y-60670000D01*
X112600000Y-53900000D02*
X111250000Y-53900000D01*
X113200002Y-53900000D02*
X112600000Y-53900000D01*
X116500000Y-57199998D02*
X113200002Y-53900000D01*
X116500000Y-60000000D02*
X116500000Y-57199998D01*
X119850000Y-54050000D02*
X119850000Y-53900000D01*
X126500000Y-56000000D02*
X121800000Y-56000000D01*
X128450000Y-53900000D02*
X128450000Y-54050000D01*
X121800000Y-56000000D02*
X119850000Y-54050000D01*
X128450000Y-54050000D02*
X126500000Y-56000000D01*
D22*
X134550000Y-53900000D02*
X134500000Y-53950000D01*
X135150000Y-56500000D02*
X134550000Y-55900000D01*
X136350000Y-56500000D02*
X135150000Y-56500000D01*
X134550000Y-55900000D02*
X134550000Y-53900000D01*
X137200000Y-59500000D02*
X137200000Y-57350000D01*
X137200000Y-57350000D02*
X136350000Y-56500000D01*
D21*
X94300000Y-62365000D02*
X93825000Y-62365000D01*
X82950000Y-55700000D02*
X82950000Y-53900000D01*
X93365000Y-62365000D02*
X93000000Y-62000000D01*
X93000000Y-62000000D02*
X93000000Y-61000000D01*
X94300000Y-62365000D02*
X93365000Y-62365000D01*
X93000000Y-61000000D02*
X91000000Y-59000000D01*
X91000000Y-59000000D02*
X86250000Y-59000000D01*
X86250000Y-59000000D02*
X82950000Y-55700000D01*
X102750000Y-58542500D02*
X102957500Y-58542500D01*
X105000000Y-56500000D02*
X105000000Y-56457500D01*
X102957500Y-58542500D02*
X105000000Y-56500000D01*
X90500011Y-59750011D02*
X85939336Y-59750011D01*
X82790798Y-52000000D02*
X104250000Y-52000000D01*
X92249990Y-61499990D02*
X90500011Y-59750011D01*
X94300000Y-63635000D02*
X93025000Y-63635000D01*
X81599990Y-53190808D02*
X82790798Y-52000000D01*
X92249990Y-62859990D02*
X92249990Y-61499990D01*
X105000000Y-55385000D02*
X105000000Y-56457500D01*
X105000000Y-52750000D02*
X105000000Y-55385000D01*
X104250000Y-52000000D02*
X105000000Y-52750000D01*
X81599990Y-55410664D02*
X81599990Y-53190808D01*
X85939336Y-59750011D02*
X81599990Y-55410664D01*
X93025000Y-63635000D02*
X92249990Y-62859990D01*
X94300000Y-64905000D02*
X93025000Y-64905000D01*
X93025000Y-64905000D02*
X91499979Y-63379979D01*
X91499979Y-63379979D02*
X91499979Y-61999979D01*
X91499979Y-61999979D02*
X90000022Y-60500022D01*
X90000022Y-60500022D02*
X85628672Y-60500022D01*
X82480123Y-51250000D02*
X121000000Y-51250000D01*
X80849979Y-55721328D02*
X80849979Y-52880144D01*
X80849979Y-52880144D02*
X82480123Y-51250000D01*
X85628672Y-60500022D02*
X80849979Y-55721328D01*
X121000000Y-51250000D02*
X122000001Y-52250001D01*
X122000001Y-52250001D02*
X122750000Y-53000000D01*
X108750000Y-58000000D02*
X108250000Y-58500000D01*
X111457500Y-58000000D02*
X108750000Y-58000000D01*
X107300000Y-57700000D02*
X107300000Y-56500000D01*
X105000000Y-58542500D02*
X106457500Y-58542500D01*
X106457500Y-58542500D02*
X107300000Y-57700000D01*
X113542500Y-58000000D02*
X115550000Y-58000000D01*
X97750000Y-60500000D02*
X97750000Y-59542500D01*
X99700000Y-61095000D02*
X98345000Y-61095000D01*
X98345000Y-61095000D02*
X97750000Y-60500000D01*
D23*
G36*
X84972142Y-61095071D02*
G01*
X84999855Y-61128839D01*
X85033623Y-61156552D01*
X85033625Y-61156554D01*
X85098749Y-61210000D01*
X85134613Y-61239433D01*
X85288359Y-61321611D01*
X85455182Y-61372217D01*
X85585195Y-61385022D01*
X85585205Y-61385022D01*
X85628671Y-61389303D01*
X85672137Y-61385022D01*
X86634801Y-61385022D01*
X86206654Y-61671101D01*
X85771101Y-62106654D01*
X85428889Y-62618810D01*
X85193169Y-63187888D01*
X85073000Y-63792017D01*
X85073000Y-64407983D01*
X85193169Y-65012112D01*
X85428889Y-65581190D01*
X85771101Y-66093346D01*
X86206654Y-66528899D01*
X86718810Y-66871111D01*
X87287888Y-67106831D01*
X87892017Y-67227000D01*
X88507983Y-67227000D01*
X89112112Y-67106831D01*
X89681190Y-66871111D01*
X90193346Y-66528899D01*
X90206685Y-66515560D01*
X104744045Y-66515560D01*
X104805932Y-66751368D01*
X105047790Y-66864266D01*
X105307027Y-66927811D01*
X105573680Y-66939561D01*
X105837501Y-66899063D01*
X106088353Y-66807875D01*
X106194068Y-66751368D01*
X106255955Y-66515560D01*
X105500000Y-65759605D01*
X104744045Y-66515560D01*
X90206685Y-66515560D01*
X90628899Y-66093346D01*
X90971111Y-65581190D01*
X91206831Y-65012112D01*
X91318606Y-64450184D01*
X92368470Y-65500049D01*
X92396183Y-65533817D01*
X92429951Y-65561530D01*
X92429953Y-65561532D01*
X92468619Y-65593264D01*
X92530941Y-65644411D01*
X92684687Y-65726589D01*
X92851510Y-65777195D01*
X92981523Y-65790000D01*
X92981533Y-65790000D01*
X93024999Y-65794281D01*
X93068465Y-65790000D01*
X93272397Y-65790000D01*
X93280820Y-65794502D01*
X93400518Y-65830812D01*
X93525000Y-65843072D01*
X95075000Y-65843072D01*
X95199482Y-65830812D01*
X95319180Y-65794502D01*
X95429494Y-65735537D01*
X95526185Y-65656185D01*
X95605537Y-65559494D01*
X95664502Y-65449180D01*
X95700812Y-65329482D01*
X95713072Y-65205000D01*
X95713072Y-65190750D01*
X98290000Y-65190750D01*
X98290000Y-65267542D01*
X98314403Y-65390223D01*
X98362270Y-65505785D01*
X98431763Y-65609789D01*
X98520211Y-65698237D01*
X98624215Y-65767730D01*
X98739777Y-65815597D01*
X98862458Y-65840000D01*
X99414250Y-65840000D01*
X99573000Y-65681250D01*
X99573000Y-65032000D01*
X99827000Y-65032000D01*
X99827000Y-65681250D01*
X99985750Y-65840000D01*
X100537542Y-65840000D01*
X100660223Y-65815597D01*
X100775785Y-65767730D01*
X100879789Y-65698237D01*
X100924346Y-65653680D01*
X104140439Y-65653680D01*
X104180937Y-65917501D01*
X104272125Y-66168353D01*
X104328632Y-66274068D01*
X104564440Y-66335955D01*
X105320395Y-65580000D01*
X104564440Y-64824045D01*
X104328632Y-64885932D01*
X104215734Y-65127790D01*
X104152189Y-65387027D01*
X104140439Y-65653680D01*
X100924346Y-65653680D01*
X100968237Y-65609789D01*
X101037730Y-65505785D01*
X101085597Y-65390223D01*
X101110000Y-65267542D01*
X101110000Y-65190750D01*
X100951250Y-65032000D01*
X99827000Y-65032000D01*
X99573000Y-65032000D01*
X98448750Y-65032000D01*
X98290000Y-65190750D01*
X95713072Y-65190750D01*
X95713072Y-64605000D01*
X95700812Y-64480518D01*
X95664502Y-64360820D01*
X95615957Y-64270000D01*
X95664502Y-64179180D01*
X95700812Y-64059482D01*
X95713072Y-63935000D01*
X95713072Y-63335000D01*
X95700812Y-63210518D01*
X95664502Y-63090820D01*
X95615957Y-63000000D01*
X95664502Y-62909180D01*
X95700812Y-62789482D01*
X95713072Y-62665000D01*
X95713072Y-62065000D01*
X95703872Y-61971589D01*
X95748490Y-61967195D01*
X95915313Y-61916589D01*
X96069059Y-61834411D01*
X96203817Y-61723817D01*
X96231534Y-61690044D01*
X96595044Y-61326534D01*
X96628817Y-61298817D01*
X96739411Y-61164059D01*
X96821589Y-61010313D01*
X96872195Y-60843490D01*
X96885000Y-60713477D01*
X96885000Y-60713469D01*
X96886209Y-60701193D01*
X96928411Y-60840312D01*
X97010589Y-60994058D01*
X97121183Y-61128817D01*
X97154954Y-61156532D01*
X97688466Y-61690044D01*
X97716183Y-61723817D01*
X97850941Y-61834411D01*
X98004687Y-61916589D01*
X98171510Y-61967195D01*
X98295359Y-61979393D01*
X98286928Y-62065000D01*
X98286928Y-62665000D01*
X98299188Y-62789482D01*
X98335498Y-62909180D01*
X98384043Y-63000000D01*
X98335498Y-63090820D01*
X98299188Y-63210518D01*
X98286928Y-63335000D01*
X98286928Y-63935000D01*
X98299188Y-64059482D01*
X98335498Y-64179180D01*
X98384527Y-64270905D01*
X98362270Y-64304215D01*
X98314403Y-64419777D01*
X98290000Y-64542458D01*
X98290000Y-64619250D01*
X98448750Y-64778000D01*
X99573000Y-64778000D01*
X99573000Y-64758000D01*
X99827000Y-64758000D01*
X99827000Y-64778000D01*
X100951250Y-64778000D01*
X101110000Y-64619250D01*
X101110000Y-64542458D01*
X101105533Y-64520000D01*
X102321531Y-64520000D01*
X102365000Y-64524281D01*
X102408469Y-64520000D01*
X103486531Y-64520000D01*
X103530000Y-64524281D01*
X103573469Y-64520000D01*
X103573477Y-64520000D01*
X103703490Y-64507195D01*
X103870313Y-64456589D01*
X104024059Y-64374411D01*
X104062942Y-64342500D01*
X104938125Y-64342500D01*
X104911647Y-64352125D01*
X104805932Y-64408632D01*
X104744045Y-64644440D01*
X105500000Y-65400395D01*
X106255955Y-64644440D01*
X106194068Y-64408632D01*
X106052395Y-64342500D01*
X106697016Y-64342500D01*
X106719463Y-64384494D01*
X106798815Y-64481185D01*
X106821869Y-64500105D01*
X106756763Y-64565211D01*
X106687270Y-64669215D01*
X106639403Y-64784777D01*
X106621866Y-64872940D01*
X106435560Y-64824045D01*
X105679605Y-65580000D01*
X106435560Y-66335955D01*
X106636044Y-66283339D01*
X106639403Y-66300223D01*
X106687270Y-66415785D01*
X106756763Y-66519789D01*
X106845211Y-66608237D01*
X106949215Y-66677730D01*
X107064777Y-66725597D01*
X107187458Y-66750000D01*
X107714250Y-66750000D01*
X107873000Y-66591250D01*
X107873000Y-65669500D01*
X108127000Y-65669500D01*
X108127000Y-66591250D01*
X108285750Y-66750000D01*
X108812542Y-66750000D01*
X108935223Y-66725597D01*
X109050785Y-66677730D01*
X109154789Y-66608237D01*
X109243237Y-66519789D01*
X109246062Y-66515560D01*
X112744045Y-66515560D01*
X112805932Y-66751368D01*
X113047790Y-66864266D01*
X113307027Y-66927811D01*
X113573680Y-66939561D01*
X113837501Y-66899063D01*
X114088353Y-66807875D01*
X114194068Y-66751368D01*
X114255955Y-66515560D01*
X113500000Y-65759605D01*
X112744045Y-66515560D01*
X109246062Y-66515560D01*
X109312730Y-66415785D01*
X109360597Y-66300223D01*
X109385000Y-66177542D01*
X109385000Y-65828250D01*
X109226250Y-65669500D01*
X108127000Y-65669500D01*
X107873000Y-65669500D01*
X107853000Y-65669500D01*
X107853000Y-65653680D01*
X112140439Y-65653680D01*
X112180937Y-65917501D01*
X112272125Y-66168353D01*
X112328632Y-66274068D01*
X112564440Y-66335955D01*
X113320395Y-65580000D01*
X112564440Y-64824045D01*
X112328632Y-64885932D01*
X112215734Y-65127790D01*
X112152189Y-65387027D01*
X112140439Y-65653680D01*
X107853000Y-65653680D01*
X107853000Y-65415500D01*
X107873000Y-65415500D01*
X107873000Y-65395500D01*
X108127000Y-65395500D01*
X108127000Y-65415500D01*
X109226250Y-65415500D01*
X109385000Y-65256750D01*
X109385000Y-64907458D01*
X109360597Y-64784777D01*
X109312730Y-64669215D01*
X109243237Y-64565211D01*
X109178131Y-64500105D01*
X109201185Y-64481185D01*
X109280537Y-64384494D01*
X109339502Y-64274180D01*
X109375812Y-64154482D01*
X109388072Y-64030000D01*
X109388072Y-62885000D01*
X109375812Y-62760518D01*
X109352678Y-62684256D01*
X109605000Y-62936578D01*
X109605000Y-63173456D01*
X109657072Y-63435239D01*
X109759215Y-63681833D01*
X109907503Y-63903762D01*
X110096238Y-64092497D01*
X110318167Y-64240785D01*
X110564761Y-64342928D01*
X110826544Y-64395000D01*
X111093456Y-64395000D01*
X111349655Y-64344039D01*
X111377499Y-64346781D01*
X111420965Y-64342500D01*
X112938125Y-64342500D01*
X112911647Y-64352125D01*
X112805932Y-64408632D01*
X112744045Y-64644440D01*
X113500000Y-65400395D01*
X114255955Y-64644440D01*
X114194068Y-64408632D01*
X114052395Y-64342500D01*
X114697016Y-64342500D01*
X114719463Y-64384494D01*
X114798815Y-64481185D01*
X114821869Y-64500105D01*
X114756763Y-64565211D01*
X114687270Y-64669215D01*
X114639403Y-64784777D01*
X114621866Y-64872940D01*
X114435560Y-64824045D01*
X113679605Y-65580000D01*
X114435560Y-66335955D01*
X114636044Y-66283339D01*
X114639403Y-66300223D01*
X114687270Y-66415785D01*
X114756763Y-66519789D01*
X114845211Y-66608237D01*
X114949215Y-66677730D01*
X115064777Y-66725597D01*
X115187458Y-66750000D01*
X115714250Y-66750000D01*
X115873000Y-66591250D01*
X115873000Y-65669500D01*
X116127000Y-65669500D01*
X116127000Y-66591250D01*
X116285750Y-66750000D01*
X116812542Y-66750000D01*
X116935223Y-66725597D01*
X117050785Y-66677730D01*
X117125000Y-66628141D01*
X117199215Y-66677730D01*
X117314777Y-66725597D01*
X117437458Y-66750000D01*
X117964250Y-66750000D01*
X118123000Y-66591250D01*
X118123000Y-65669500D01*
X118377000Y-65669500D01*
X118377000Y-66591250D01*
X118535750Y-66750000D01*
X119062542Y-66750000D01*
X119185223Y-66725597D01*
X119300785Y-66677730D01*
X119404789Y-66608237D01*
X119493237Y-66519789D01*
X119562730Y-66415785D01*
X119610597Y-66300223D01*
X119635000Y-66177542D01*
X119635000Y-65828250D01*
X119476250Y-65669500D01*
X118377000Y-65669500D01*
X118123000Y-65669500D01*
X116127000Y-65669500D01*
X115873000Y-65669500D01*
X115853000Y-65669500D01*
X115853000Y-65415500D01*
X115873000Y-65415500D01*
X115873000Y-65395500D01*
X116127000Y-65395500D01*
X116127000Y-65415500D01*
X118123000Y-65415500D01*
X118123000Y-65395500D01*
X118377000Y-65395500D01*
X118377000Y-65415500D01*
X119476250Y-65415500D01*
X119635000Y-65256750D01*
X119635000Y-64907458D01*
X119610597Y-64784777D01*
X119562730Y-64669215D01*
X119493237Y-64565211D01*
X119428131Y-64500105D01*
X119451185Y-64481185D01*
X119530537Y-64384494D01*
X119552984Y-64342500D01*
X119665053Y-64342500D01*
X119656928Y-64425000D01*
X119656928Y-65975000D01*
X119669188Y-66099482D01*
X119705498Y-66219180D01*
X119764463Y-66329494D01*
X119843815Y-66426185D01*
X119940506Y-66505537D01*
X120050820Y-66564502D01*
X120170518Y-66600812D01*
X120295000Y-66613072D01*
X120895000Y-66613072D01*
X121019482Y-66600812D01*
X121139180Y-66564502D01*
X121230905Y-66515473D01*
X121264215Y-66537730D01*
X121379777Y-66585597D01*
X121502458Y-66610000D01*
X121579250Y-66610000D01*
X121738000Y-66451250D01*
X121738000Y-65327000D01*
X121992000Y-65327000D01*
X121992000Y-66451250D01*
X122150750Y-66610000D01*
X122227542Y-66610000D01*
X122350223Y-66585597D01*
X122465785Y-66537730D01*
X122500000Y-66514868D01*
X122534215Y-66537730D01*
X122649777Y-66585597D01*
X122772458Y-66610000D01*
X122849250Y-66610000D01*
X123008000Y-66451250D01*
X123008000Y-65327000D01*
X121992000Y-65327000D01*
X121738000Y-65327000D01*
X121718000Y-65327000D01*
X121718000Y-65073000D01*
X121738000Y-65073000D01*
X121738000Y-65053000D01*
X121992000Y-65053000D01*
X121992000Y-65073000D01*
X123008000Y-65073000D01*
X123008000Y-65053000D01*
X123262000Y-65053000D01*
X123262000Y-65073000D01*
X123282000Y-65073000D01*
X123282000Y-65327000D01*
X123262000Y-65327000D01*
X123262000Y-66451250D01*
X123420750Y-66610000D01*
X123497542Y-66610000D01*
X123620223Y-66585597D01*
X123735785Y-66537730D01*
X123769095Y-66515473D01*
X123860820Y-66564502D01*
X123980518Y-66600812D01*
X124105000Y-66613072D01*
X124705000Y-66613072D01*
X124829482Y-66600812D01*
X124949180Y-66564502D01*
X125059494Y-66505537D01*
X125156185Y-66426185D01*
X125235537Y-66329494D01*
X125294502Y-66219180D01*
X125327471Y-66110497D01*
X125410211Y-66193237D01*
X125514215Y-66262730D01*
X125629777Y-66310597D01*
X125752458Y-66335000D01*
X126646750Y-66335000D01*
X126805500Y-66176250D01*
X126805500Y-64627000D01*
X127059500Y-64627000D01*
X127059500Y-66176250D01*
X127218250Y-66335000D01*
X128112542Y-66335000D01*
X128235223Y-66310597D01*
X128350785Y-66262730D01*
X128454789Y-66193237D01*
X128543237Y-66104789D01*
X128612730Y-66000785D01*
X128660597Y-65885223D01*
X128685000Y-65762542D01*
X128685000Y-64785750D01*
X128526250Y-64627000D01*
X127059500Y-64627000D01*
X126805500Y-64627000D01*
X126785500Y-64627000D01*
X126785500Y-64373000D01*
X126805500Y-64373000D01*
X126805500Y-62823750D01*
X127059500Y-62823750D01*
X127059500Y-64373000D01*
X128526250Y-64373000D01*
X128685000Y-64214250D01*
X128685000Y-63237458D01*
X128660597Y-63114777D01*
X128612730Y-62999215D01*
X128543237Y-62895211D01*
X128454789Y-62806763D01*
X128350785Y-62737270D01*
X128235223Y-62689403D01*
X128112542Y-62665000D01*
X127218250Y-62665000D01*
X127059500Y-62823750D01*
X126805500Y-62823750D01*
X126646750Y-62665000D01*
X125752458Y-62665000D01*
X125629777Y-62689403D01*
X125514215Y-62737270D01*
X125410211Y-62806763D01*
X125321763Y-62895211D01*
X125252270Y-62999215D01*
X125204403Y-63114777D01*
X125180000Y-63237458D01*
X125180000Y-63497524D01*
X125144411Y-63430941D01*
X125033817Y-63296183D01*
X125000045Y-63268467D01*
X124594032Y-62862454D01*
X124566317Y-62828683D01*
X124431559Y-62718089D01*
X124277813Y-62635911D01*
X124110990Y-62585305D01*
X123980977Y-62572500D01*
X123980969Y-62572500D01*
X123937500Y-62568219D01*
X123894031Y-62572500D01*
X119552984Y-62572500D01*
X119530537Y-62530506D01*
X119451185Y-62433815D01*
X119354494Y-62354463D01*
X119244180Y-62295498D01*
X119124482Y-62259188D01*
X119000000Y-62246928D01*
X118113507Y-62246928D01*
X118001579Y-62135000D01*
X118136411Y-62135000D01*
X118403989Y-62081775D01*
X118656043Y-61977371D01*
X118882886Y-61825799D01*
X119075799Y-61632886D01*
X119227371Y-61406043D01*
X119331775Y-61153989D01*
X119385000Y-60886411D01*
X119385000Y-60613589D01*
X119331775Y-60346011D01*
X119227371Y-60093957D01*
X119135000Y-59955714D01*
X119135000Y-59025000D01*
X119656928Y-59025000D01*
X119656928Y-60575000D01*
X119669188Y-60699482D01*
X119705498Y-60819180D01*
X119764463Y-60929494D01*
X119843815Y-61026185D01*
X119940506Y-61105537D01*
X120050820Y-61164502D01*
X120170518Y-61200812D01*
X120295000Y-61213072D01*
X120895000Y-61213072D01*
X121019482Y-61200812D01*
X121139180Y-61164502D01*
X121230905Y-61115473D01*
X121264215Y-61137730D01*
X121379777Y-61185597D01*
X121502458Y-61210000D01*
X121579250Y-61210000D01*
X121738000Y-61051250D01*
X121738000Y-59927000D01*
X121992000Y-59927000D01*
X121992000Y-61051250D01*
X122150750Y-61210000D01*
X122227542Y-61210000D01*
X122350223Y-61185597D01*
X122465785Y-61137730D01*
X122500000Y-61114868D01*
X122534215Y-61137730D01*
X122649777Y-61185597D01*
X122772458Y-61210000D01*
X122849250Y-61210000D01*
X123008000Y-61051250D01*
X123008000Y-59927000D01*
X121992000Y-59927000D01*
X121738000Y-59927000D01*
X121718000Y-59927000D01*
X121718000Y-59673000D01*
X121738000Y-59673000D01*
X121738000Y-58548750D01*
X121992000Y-58548750D01*
X121992000Y-59673000D01*
X123008000Y-59673000D01*
X123008000Y-58548750D01*
X122849250Y-58390000D01*
X122772458Y-58390000D01*
X122649777Y-58414403D01*
X122534215Y-58462270D01*
X122500000Y-58485132D01*
X122465785Y-58462270D01*
X122350223Y-58414403D01*
X122227542Y-58390000D01*
X122150750Y-58390000D01*
X121992000Y-58548750D01*
X121738000Y-58548750D01*
X121579250Y-58390000D01*
X121502458Y-58390000D01*
X121379777Y-58414403D01*
X121264215Y-58462270D01*
X121230905Y-58484527D01*
X121139180Y-58435498D01*
X121019482Y-58399188D01*
X120895000Y-58386928D01*
X120295000Y-58386928D01*
X120170518Y-58399188D01*
X120050820Y-58435498D01*
X119940506Y-58494463D01*
X119843815Y-58573815D01*
X119764463Y-58670506D01*
X119705498Y-58780820D01*
X119669188Y-58900518D01*
X119656928Y-59025000D01*
X119135000Y-59025000D01*
X119135000Y-58043476D01*
X119139282Y-58000000D01*
X119135000Y-57956523D01*
X119135000Y-57885000D01*
X124113422Y-57885000D01*
X123809952Y-58188470D01*
X123776184Y-58216183D01*
X123748471Y-58249951D01*
X123748468Y-58249954D01*
X123665590Y-58350941D01*
X123629594Y-58418285D01*
X123620223Y-58414403D01*
X123497542Y-58390000D01*
X123420750Y-58390000D01*
X123262000Y-58548750D01*
X123262000Y-59673000D01*
X123282000Y-59673000D01*
X123282000Y-59927000D01*
X123262000Y-59927000D01*
X123262000Y-61051250D01*
X123420750Y-61210000D01*
X123497542Y-61210000D01*
X123620223Y-61185597D01*
X123735785Y-61137730D01*
X123769095Y-61115473D01*
X123860820Y-61164502D01*
X123980518Y-61200812D01*
X124105000Y-61213072D01*
X124705000Y-61213072D01*
X124829482Y-61200812D01*
X124949180Y-61164502D01*
X125059494Y-61105537D01*
X125115000Y-61059985D01*
X125115000Y-61177542D01*
X125139403Y-61300223D01*
X125187270Y-61415785D01*
X125256763Y-61519789D01*
X125345211Y-61608237D01*
X125449215Y-61677730D01*
X125564777Y-61725597D01*
X125687458Y-61750000D01*
X126214250Y-61750000D01*
X126373000Y-61591250D01*
X126373000Y-60669500D01*
X126627000Y-60669500D01*
X126627000Y-61591250D01*
X126785750Y-61750000D01*
X127312542Y-61750000D01*
X127435223Y-61725597D01*
X127550785Y-61677730D01*
X127654789Y-61608237D01*
X127743237Y-61519789D01*
X127812730Y-61415785D01*
X127860597Y-61300223D01*
X127885000Y-61177542D01*
X127885000Y-60828250D01*
X127726250Y-60669500D01*
X126627000Y-60669500D01*
X126373000Y-60669500D01*
X126353000Y-60669500D01*
X126353000Y-60415500D01*
X126373000Y-60415500D01*
X126373000Y-60395500D01*
X126627000Y-60395500D01*
X126627000Y-60415500D01*
X127726250Y-60415500D01*
X127885000Y-60256750D01*
X127885000Y-59907458D01*
X127860597Y-59784777D01*
X127812730Y-59669215D01*
X127743237Y-59565211D01*
X127678131Y-59500105D01*
X127701185Y-59481185D01*
X127780537Y-59384494D01*
X127839502Y-59274180D01*
X127875812Y-59154482D01*
X127888072Y-59030000D01*
X127888072Y-57885000D01*
X128383422Y-57885000D01*
X129411928Y-58913507D01*
X129411928Y-60650000D01*
X129424188Y-60774482D01*
X129460498Y-60894180D01*
X129519463Y-61004494D01*
X129598815Y-61101185D01*
X129695506Y-61180537D01*
X129805820Y-61239502D01*
X129925518Y-61275812D01*
X130050000Y-61288072D01*
X130932500Y-61288072D01*
X130932500Y-62123251D01*
X130932501Y-62123261D01*
X130932501Y-62663651D01*
X130825518Y-62674188D01*
X130705820Y-62710498D01*
X130595506Y-62769463D01*
X130498815Y-62848815D01*
X130419463Y-62945506D01*
X130360498Y-63055820D01*
X130324188Y-63175518D01*
X130311928Y-63300000D01*
X130311928Y-65700000D01*
X130324188Y-65824482D01*
X130360498Y-65944180D01*
X130419463Y-66054494D01*
X130498815Y-66151185D01*
X130595506Y-66230537D01*
X130705820Y-66289502D01*
X130825518Y-66325812D01*
X130950000Y-66338072D01*
X133185000Y-66338072D01*
X133309482Y-66325812D01*
X133429180Y-66289502D01*
X133539494Y-66230537D01*
X133636185Y-66151185D01*
X133715537Y-66054494D01*
X133774502Y-65944180D01*
X133810812Y-65824482D01*
X133823072Y-65700000D01*
X133823072Y-63572273D01*
X133846011Y-63581775D01*
X134113589Y-63635000D01*
X134386411Y-63635000D01*
X134538776Y-63604693D01*
X134328889Y-63918810D01*
X134093169Y-64487888D01*
X133973000Y-65092017D01*
X133973000Y-65707983D01*
X134093169Y-66312112D01*
X134328889Y-66881190D01*
X134635456Y-67340000D01*
X82032279Y-67340000D01*
X81740340Y-67311375D01*
X81490571Y-67235965D01*
X81260206Y-67113477D01*
X81058021Y-66948579D01*
X80891712Y-66747546D01*
X80767622Y-66518046D01*
X80690469Y-66268805D01*
X80660000Y-65978911D01*
X80660000Y-56782927D01*
X84972142Y-61095071D01*
X84972142Y-61095071D01*
G37*
X84972142Y-61095071D02*
X84999855Y-61128839D01*
X85033623Y-61156552D01*
X85033625Y-61156554D01*
X85098749Y-61210000D01*
X85134613Y-61239433D01*
X85288359Y-61321611D01*
X85455182Y-61372217D01*
X85585195Y-61385022D01*
X85585205Y-61385022D01*
X85628671Y-61389303D01*
X85672137Y-61385022D01*
X86634801Y-61385022D01*
X86206654Y-61671101D01*
X85771101Y-62106654D01*
X85428889Y-62618810D01*
X85193169Y-63187888D01*
X85073000Y-63792017D01*
X85073000Y-64407983D01*
X85193169Y-65012112D01*
X85428889Y-65581190D01*
X85771101Y-66093346D01*
X86206654Y-66528899D01*
X86718810Y-66871111D01*
X87287888Y-67106831D01*
X87892017Y-67227000D01*
X88507983Y-67227000D01*
X89112112Y-67106831D01*
X89681190Y-66871111D01*
X90193346Y-66528899D01*
X90206685Y-66515560D01*
X104744045Y-66515560D01*
X104805932Y-66751368D01*
X105047790Y-66864266D01*
X105307027Y-66927811D01*
X105573680Y-66939561D01*
X105837501Y-66899063D01*
X106088353Y-66807875D01*
X106194068Y-66751368D01*
X106255955Y-66515560D01*
X105500000Y-65759605D01*
X104744045Y-66515560D01*
X90206685Y-66515560D01*
X90628899Y-66093346D01*
X90971111Y-65581190D01*
X91206831Y-65012112D01*
X91318606Y-64450184D01*
X92368470Y-65500049D01*
X92396183Y-65533817D01*
X92429951Y-65561530D01*
X92429953Y-65561532D01*
X92468619Y-65593264D01*
X92530941Y-65644411D01*
X92684687Y-65726589D01*
X92851510Y-65777195D01*
X92981523Y-65790000D01*
X92981533Y-65790000D01*
X93024999Y-65794281D01*
X93068465Y-65790000D01*
X93272397Y-65790000D01*
X93280820Y-65794502D01*
X93400518Y-65830812D01*
X93525000Y-65843072D01*
X95075000Y-65843072D01*
X95199482Y-65830812D01*
X95319180Y-65794502D01*
X95429494Y-65735537D01*
X95526185Y-65656185D01*
X95605537Y-65559494D01*
X95664502Y-65449180D01*
X95700812Y-65329482D01*
X95713072Y-65205000D01*
X95713072Y-65190750D01*
X98290000Y-65190750D01*
X98290000Y-65267542D01*
X98314403Y-65390223D01*
X98362270Y-65505785D01*
X98431763Y-65609789D01*
X98520211Y-65698237D01*
X98624215Y-65767730D01*
X98739777Y-65815597D01*
X98862458Y-65840000D01*
X99414250Y-65840000D01*
X99573000Y-65681250D01*
X99573000Y-65032000D01*
X99827000Y-65032000D01*
X99827000Y-65681250D01*
X99985750Y-65840000D01*
X100537542Y-65840000D01*
X100660223Y-65815597D01*
X100775785Y-65767730D01*
X100879789Y-65698237D01*
X100924346Y-65653680D01*
X104140439Y-65653680D01*
X104180937Y-65917501D01*
X104272125Y-66168353D01*
X104328632Y-66274068D01*
X104564440Y-66335955D01*
X105320395Y-65580000D01*
X104564440Y-64824045D01*
X104328632Y-64885932D01*
X104215734Y-65127790D01*
X104152189Y-65387027D01*
X104140439Y-65653680D01*
X100924346Y-65653680D01*
X100968237Y-65609789D01*
X101037730Y-65505785D01*
X101085597Y-65390223D01*
X101110000Y-65267542D01*
X101110000Y-65190750D01*
X100951250Y-65032000D01*
X99827000Y-65032000D01*
X99573000Y-65032000D01*
X98448750Y-65032000D01*
X98290000Y-65190750D01*
X95713072Y-65190750D01*
X95713072Y-64605000D01*
X95700812Y-64480518D01*
X95664502Y-64360820D01*
X95615957Y-64270000D01*
X95664502Y-64179180D01*
X95700812Y-64059482D01*
X95713072Y-63935000D01*
X95713072Y-63335000D01*
X95700812Y-63210518D01*
X95664502Y-63090820D01*
X95615957Y-63000000D01*
X95664502Y-62909180D01*
X95700812Y-62789482D01*
X95713072Y-62665000D01*
X95713072Y-62065000D01*
X95703872Y-61971589D01*
X95748490Y-61967195D01*
X95915313Y-61916589D01*
X96069059Y-61834411D01*
X96203817Y-61723817D01*
X96231534Y-61690044D01*
X96595044Y-61326534D01*
X96628817Y-61298817D01*
X96739411Y-61164059D01*
X96821589Y-61010313D01*
X96872195Y-60843490D01*
X96885000Y-60713477D01*
X96885000Y-60713469D01*
X96886209Y-60701193D01*
X96928411Y-60840312D01*
X97010589Y-60994058D01*
X97121183Y-61128817D01*
X97154954Y-61156532D01*
X97688466Y-61690044D01*
X97716183Y-61723817D01*
X97850941Y-61834411D01*
X98004687Y-61916589D01*
X98171510Y-61967195D01*
X98295359Y-61979393D01*
X98286928Y-62065000D01*
X98286928Y-62665000D01*
X98299188Y-62789482D01*
X98335498Y-62909180D01*
X98384043Y-63000000D01*
X98335498Y-63090820D01*
X98299188Y-63210518D01*
X98286928Y-63335000D01*
X98286928Y-63935000D01*
X98299188Y-64059482D01*
X98335498Y-64179180D01*
X98384527Y-64270905D01*
X98362270Y-64304215D01*
X98314403Y-64419777D01*
X98290000Y-64542458D01*
X98290000Y-64619250D01*
X98448750Y-64778000D01*
X99573000Y-64778000D01*
X99573000Y-64758000D01*
X99827000Y-64758000D01*
X99827000Y-64778000D01*
X100951250Y-64778000D01*
X101110000Y-64619250D01*
X101110000Y-64542458D01*
X101105533Y-64520000D01*
X102321531Y-64520000D01*
X102365000Y-64524281D01*
X102408469Y-64520000D01*
X103486531Y-64520000D01*
X103530000Y-64524281D01*
X103573469Y-64520000D01*
X103573477Y-64520000D01*
X103703490Y-64507195D01*
X103870313Y-64456589D01*
X104024059Y-64374411D01*
X104062942Y-64342500D01*
X104938125Y-64342500D01*
X104911647Y-64352125D01*
X104805932Y-64408632D01*
X104744045Y-64644440D01*
X105500000Y-65400395D01*
X106255955Y-64644440D01*
X106194068Y-64408632D01*
X106052395Y-64342500D01*
X106697016Y-64342500D01*
X106719463Y-64384494D01*
X106798815Y-64481185D01*
X106821869Y-64500105D01*
X106756763Y-64565211D01*
X106687270Y-64669215D01*
X106639403Y-64784777D01*
X106621866Y-64872940D01*
X106435560Y-64824045D01*
X105679605Y-65580000D01*
X106435560Y-66335955D01*
X106636044Y-66283339D01*
X106639403Y-66300223D01*
X106687270Y-66415785D01*
X106756763Y-66519789D01*
X106845211Y-66608237D01*
X106949215Y-66677730D01*
X107064777Y-66725597D01*
X107187458Y-66750000D01*
X107714250Y-66750000D01*
X107873000Y-66591250D01*
X107873000Y-65669500D01*
X108127000Y-65669500D01*
X108127000Y-66591250D01*
X108285750Y-66750000D01*
X108812542Y-66750000D01*
X108935223Y-66725597D01*
X109050785Y-66677730D01*
X109154789Y-66608237D01*
X109243237Y-66519789D01*
X109246062Y-66515560D01*
X112744045Y-66515560D01*
X112805932Y-66751368D01*
X113047790Y-66864266D01*
X113307027Y-66927811D01*
X113573680Y-66939561D01*
X113837501Y-66899063D01*
X114088353Y-66807875D01*
X114194068Y-66751368D01*
X114255955Y-66515560D01*
X113500000Y-65759605D01*
X112744045Y-66515560D01*
X109246062Y-66515560D01*
X109312730Y-66415785D01*
X109360597Y-66300223D01*
X109385000Y-66177542D01*
X109385000Y-65828250D01*
X109226250Y-65669500D01*
X108127000Y-65669500D01*
X107873000Y-65669500D01*
X107853000Y-65669500D01*
X107853000Y-65653680D01*
X112140439Y-65653680D01*
X112180937Y-65917501D01*
X112272125Y-66168353D01*
X112328632Y-66274068D01*
X112564440Y-66335955D01*
X113320395Y-65580000D01*
X112564440Y-64824045D01*
X112328632Y-64885932D01*
X112215734Y-65127790D01*
X112152189Y-65387027D01*
X112140439Y-65653680D01*
X107853000Y-65653680D01*
X107853000Y-65415500D01*
X107873000Y-65415500D01*
X107873000Y-65395500D01*
X108127000Y-65395500D01*
X108127000Y-65415500D01*
X109226250Y-65415500D01*
X109385000Y-65256750D01*
X109385000Y-64907458D01*
X109360597Y-64784777D01*
X109312730Y-64669215D01*
X109243237Y-64565211D01*
X109178131Y-64500105D01*
X109201185Y-64481185D01*
X109280537Y-64384494D01*
X109339502Y-64274180D01*
X109375812Y-64154482D01*
X109388072Y-64030000D01*
X109388072Y-62885000D01*
X109375812Y-62760518D01*
X109352678Y-62684256D01*
X109605000Y-62936578D01*
X109605000Y-63173456D01*
X109657072Y-63435239D01*
X109759215Y-63681833D01*
X109907503Y-63903762D01*
X110096238Y-64092497D01*
X110318167Y-64240785D01*
X110564761Y-64342928D01*
X110826544Y-64395000D01*
X111093456Y-64395000D01*
X111349655Y-64344039D01*
X111377499Y-64346781D01*
X111420965Y-64342500D01*
X112938125Y-64342500D01*
X112911647Y-64352125D01*
X112805932Y-64408632D01*
X112744045Y-64644440D01*
X113500000Y-65400395D01*
X114255955Y-64644440D01*
X114194068Y-64408632D01*
X114052395Y-64342500D01*
X114697016Y-64342500D01*
X114719463Y-64384494D01*
X114798815Y-64481185D01*
X114821869Y-64500105D01*
X114756763Y-64565211D01*
X114687270Y-64669215D01*
X114639403Y-64784777D01*
X114621866Y-64872940D01*
X114435560Y-64824045D01*
X113679605Y-65580000D01*
X114435560Y-66335955D01*
X114636044Y-66283339D01*
X114639403Y-66300223D01*
X114687270Y-66415785D01*
X114756763Y-66519789D01*
X114845211Y-66608237D01*
X114949215Y-66677730D01*
X115064777Y-66725597D01*
X115187458Y-66750000D01*
X115714250Y-66750000D01*
X115873000Y-66591250D01*
X115873000Y-65669500D01*
X116127000Y-65669500D01*
X116127000Y-66591250D01*
X116285750Y-66750000D01*
X116812542Y-66750000D01*
X116935223Y-66725597D01*
X117050785Y-66677730D01*
X117125000Y-66628141D01*
X117199215Y-66677730D01*
X117314777Y-66725597D01*
X117437458Y-66750000D01*
X117964250Y-66750000D01*
X118123000Y-66591250D01*
X118123000Y-65669500D01*
X118377000Y-65669500D01*
X118377000Y-66591250D01*
X118535750Y-66750000D01*
X119062542Y-66750000D01*
X119185223Y-66725597D01*
X119300785Y-66677730D01*
X119404789Y-66608237D01*
X119493237Y-66519789D01*
X119562730Y-66415785D01*
X119610597Y-66300223D01*
X119635000Y-66177542D01*
X119635000Y-65828250D01*
X119476250Y-65669500D01*
X118377000Y-65669500D01*
X118123000Y-65669500D01*
X116127000Y-65669500D01*
X115873000Y-65669500D01*
X115853000Y-65669500D01*
X115853000Y-65415500D01*
X115873000Y-65415500D01*
X115873000Y-65395500D01*
X116127000Y-65395500D01*
X116127000Y-65415500D01*
X118123000Y-65415500D01*
X118123000Y-65395500D01*
X118377000Y-65395500D01*
X118377000Y-65415500D01*
X119476250Y-65415500D01*
X119635000Y-65256750D01*
X119635000Y-64907458D01*
X119610597Y-64784777D01*
X119562730Y-64669215D01*
X119493237Y-64565211D01*
X119428131Y-64500105D01*
X119451185Y-64481185D01*
X119530537Y-64384494D01*
X119552984Y-64342500D01*
X119665053Y-64342500D01*
X119656928Y-64425000D01*
X119656928Y-65975000D01*
X119669188Y-66099482D01*
X119705498Y-66219180D01*
X119764463Y-66329494D01*
X119843815Y-66426185D01*
X119940506Y-66505537D01*
X120050820Y-66564502D01*
X120170518Y-66600812D01*
X120295000Y-66613072D01*
X120895000Y-66613072D01*
X121019482Y-66600812D01*
X121139180Y-66564502D01*
X121230905Y-66515473D01*
X121264215Y-66537730D01*
X121379777Y-66585597D01*
X121502458Y-66610000D01*
X121579250Y-66610000D01*
X121738000Y-66451250D01*
X121738000Y-65327000D01*
X121992000Y-65327000D01*
X121992000Y-66451250D01*
X122150750Y-66610000D01*
X122227542Y-66610000D01*
X122350223Y-66585597D01*
X122465785Y-66537730D01*
X122500000Y-66514868D01*
X122534215Y-66537730D01*
X122649777Y-66585597D01*
X122772458Y-66610000D01*
X122849250Y-66610000D01*
X123008000Y-66451250D01*
X123008000Y-65327000D01*
X121992000Y-65327000D01*
X121738000Y-65327000D01*
X121718000Y-65327000D01*
X121718000Y-65073000D01*
X121738000Y-65073000D01*
X121738000Y-65053000D01*
X121992000Y-65053000D01*
X121992000Y-65073000D01*
X123008000Y-65073000D01*
X123008000Y-65053000D01*
X123262000Y-65053000D01*
X123262000Y-65073000D01*
X123282000Y-65073000D01*
X123282000Y-65327000D01*
X123262000Y-65327000D01*
X123262000Y-66451250D01*
X123420750Y-66610000D01*
X123497542Y-66610000D01*
X123620223Y-66585597D01*
X123735785Y-66537730D01*
X123769095Y-66515473D01*
X123860820Y-66564502D01*
X123980518Y-66600812D01*
X124105000Y-66613072D01*
X124705000Y-66613072D01*
X124829482Y-66600812D01*
X124949180Y-66564502D01*
X125059494Y-66505537D01*
X125156185Y-66426185D01*
X125235537Y-66329494D01*
X125294502Y-66219180D01*
X125327471Y-66110497D01*
X125410211Y-66193237D01*
X125514215Y-66262730D01*
X125629777Y-66310597D01*
X125752458Y-66335000D01*
X126646750Y-66335000D01*
X126805500Y-66176250D01*
X126805500Y-64627000D01*
X127059500Y-64627000D01*
X127059500Y-66176250D01*
X127218250Y-66335000D01*
X128112542Y-66335000D01*
X128235223Y-66310597D01*
X128350785Y-66262730D01*
X128454789Y-66193237D01*
X128543237Y-66104789D01*
X128612730Y-66000785D01*
X128660597Y-65885223D01*
X128685000Y-65762542D01*
X128685000Y-64785750D01*
X128526250Y-64627000D01*
X127059500Y-64627000D01*
X126805500Y-64627000D01*
X126785500Y-64627000D01*
X126785500Y-64373000D01*
X126805500Y-64373000D01*
X126805500Y-62823750D01*
X127059500Y-62823750D01*
X127059500Y-64373000D01*
X128526250Y-64373000D01*
X128685000Y-64214250D01*
X128685000Y-63237458D01*
X128660597Y-63114777D01*
X128612730Y-62999215D01*
X128543237Y-62895211D01*
X128454789Y-62806763D01*
X128350785Y-62737270D01*
X128235223Y-62689403D01*
X128112542Y-62665000D01*
X127218250Y-62665000D01*
X127059500Y-62823750D01*
X126805500Y-62823750D01*
X126646750Y-62665000D01*
X125752458Y-62665000D01*
X125629777Y-62689403D01*
X125514215Y-62737270D01*
X125410211Y-62806763D01*
X125321763Y-62895211D01*
X125252270Y-62999215D01*
X125204403Y-63114777D01*
X125180000Y-63237458D01*
X125180000Y-63497524D01*
X125144411Y-63430941D01*
X125033817Y-63296183D01*
X125000045Y-63268467D01*
X124594032Y-62862454D01*
X124566317Y-62828683D01*
X124431559Y-62718089D01*
X124277813Y-62635911D01*
X124110990Y-62585305D01*
X123980977Y-62572500D01*
X123980969Y-62572500D01*
X123937500Y-62568219D01*
X123894031Y-62572500D01*
X119552984Y-62572500D01*
X119530537Y-62530506D01*
X119451185Y-62433815D01*
X119354494Y-62354463D01*
X119244180Y-62295498D01*
X119124482Y-62259188D01*
X119000000Y-62246928D01*
X118113507Y-62246928D01*
X118001579Y-62135000D01*
X118136411Y-62135000D01*
X118403989Y-62081775D01*
X118656043Y-61977371D01*
X118882886Y-61825799D01*
X119075799Y-61632886D01*
X119227371Y-61406043D01*
X119331775Y-61153989D01*
X119385000Y-60886411D01*
X119385000Y-60613589D01*
X119331775Y-60346011D01*
X119227371Y-60093957D01*
X119135000Y-59955714D01*
X119135000Y-59025000D01*
X119656928Y-59025000D01*
X119656928Y-60575000D01*
X119669188Y-60699482D01*
X119705498Y-60819180D01*
X119764463Y-60929494D01*
X119843815Y-61026185D01*
X119940506Y-61105537D01*
X120050820Y-61164502D01*
X120170518Y-61200812D01*
X120295000Y-61213072D01*
X120895000Y-61213072D01*
X121019482Y-61200812D01*
X121139180Y-61164502D01*
X121230905Y-61115473D01*
X121264215Y-61137730D01*
X121379777Y-61185597D01*
X121502458Y-61210000D01*
X121579250Y-61210000D01*
X121738000Y-61051250D01*
X121738000Y-59927000D01*
X121992000Y-59927000D01*
X121992000Y-61051250D01*
X122150750Y-61210000D01*
X122227542Y-61210000D01*
X122350223Y-61185597D01*
X122465785Y-61137730D01*
X122500000Y-61114868D01*
X122534215Y-61137730D01*
X122649777Y-61185597D01*
X122772458Y-61210000D01*
X122849250Y-61210000D01*
X123008000Y-61051250D01*
X123008000Y-59927000D01*
X121992000Y-59927000D01*
X121738000Y-59927000D01*
X121718000Y-59927000D01*
X121718000Y-59673000D01*
X121738000Y-59673000D01*
X121738000Y-58548750D01*
X121992000Y-58548750D01*
X121992000Y-59673000D01*
X123008000Y-59673000D01*
X123008000Y-58548750D01*
X122849250Y-58390000D01*
X122772458Y-58390000D01*
X122649777Y-58414403D01*
X122534215Y-58462270D01*
X122500000Y-58485132D01*
X122465785Y-58462270D01*
X122350223Y-58414403D01*
X122227542Y-58390000D01*
X122150750Y-58390000D01*
X121992000Y-58548750D01*
X121738000Y-58548750D01*
X121579250Y-58390000D01*
X121502458Y-58390000D01*
X121379777Y-58414403D01*
X121264215Y-58462270D01*
X121230905Y-58484527D01*
X121139180Y-58435498D01*
X121019482Y-58399188D01*
X120895000Y-58386928D01*
X120295000Y-58386928D01*
X120170518Y-58399188D01*
X120050820Y-58435498D01*
X119940506Y-58494463D01*
X119843815Y-58573815D01*
X119764463Y-58670506D01*
X119705498Y-58780820D01*
X119669188Y-58900518D01*
X119656928Y-59025000D01*
X119135000Y-59025000D01*
X119135000Y-58043476D01*
X119139282Y-58000000D01*
X119135000Y-57956523D01*
X119135000Y-57885000D01*
X124113422Y-57885000D01*
X123809952Y-58188470D01*
X123776184Y-58216183D01*
X123748471Y-58249951D01*
X123748468Y-58249954D01*
X123665590Y-58350941D01*
X123629594Y-58418285D01*
X123620223Y-58414403D01*
X123497542Y-58390000D01*
X123420750Y-58390000D01*
X123262000Y-58548750D01*
X123262000Y-59673000D01*
X123282000Y-59673000D01*
X123282000Y-59927000D01*
X123262000Y-59927000D01*
X123262000Y-61051250D01*
X123420750Y-61210000D01*
X123497542Y-61210000D01*
X123620223Y-61185597D01*
X123735785Y-61137730D01*
X123769095Y-61115473D01*
X123860820Y-61164502D01*
X123980518Y-61200812D01*
X124105000Y-61213072D01*
X124705000Y-61213072D01*
X124829482Y-61200812D01*
X124949180Y-61164502D01*
X125059494Y-61105537D01*
X125115000Y-61059985D01*
X125115000Y-61177542D01*
X125139403Y-61300223D01*
X125187270Y-61415785D01*
X125256763Y-61519789D01*
X125345211Y-61608237D01*
X125449215Y-61677730D01*
X125564777Y-61725597D01*
X125687458Y-61750000D01*
X126214250Y-61750000D01*
X126373000Y-61591250D01*
X126373000Y-60669500D01*
X126627000Y-60669500D01*
X126627000Y-61591250D01*
X126785750Y-61750000D01*
X127312542Y-61750000D01*
X127435223Y-61725597D01*
X127550785Y-61677730D01*
X127654789Y-61608237D01*
X127743237Y-61519789D01*
X127812730Y-61415785D01*
X127860597Y-61300223D01*
X127885000Y-61177542D01*
X127885000Y-60828250D01*
X127726250Y-60669500D01*
X126627000Y-60669500D01*
X126373000Y-60669500D01*
X126353000Y-60669500D01*
X126353000Y-60415500D01*
X126373000Y-60415500D01*
X126373000Y-60395500D01*
X126627000Y-60395500D01*
X126627000Y-60415500D01*
X127726250Y-60415500D01*
X127885000Y-60256750D01*
X127885000Y-59907458D01*
X127860597Y-59784777D01*
X127812730Y-59669215D01*
X127743237Y-59565211D01*
X127678131Y-59500105D01*
X127701185Y-59481185D01*
X127780537Y-59384494D01*
X127839502Y-59274180D01*
X127875812Y-59154482D01*
X127888072Y-59030000D01*
X127888072Y-57885000D01*
X128383422Y-57885000D01*
X129411928Y-58913507D01*
X129411928Y-60650000D01*
X129424188Y-60774482D01*
X129460498Y-60894180D01*
X129519463Y-61004494D01*
X129598815Y-61101185D01*
X129695506Y-61180537D01*
X129805820Y-61239502D01*
X129925518Y-61275812D01*
X130050000Y-61288072D01*
X130932500Y-61288072D01*
X130932500Y-62123251D01*
X130932501Y-62123261D01*
X130932501Y-62663651D01*
X130825518Y-62674188D01*
X130705820Y-62710498D01*
X130595506Y-62769463D01*
X130498815Y-62848815D01*
X130419463Y-62945506D01*
X130360498Y-63055820D01*
X130324188Y-63175518D01*
X130311928Y-63300000D01*
X130311928Y-65700000D01*
X130324188Y-65824482D01*
X130360498Y-65944180D01*
X130419463Y-66054494D01*
X130498815Y-66151185D01*
X130595506Y-66230537D01*
X130705820Y-66289502D01*
X130825518Y-66325812D01*
X130950000Y-66338072D01*
X133185000Y-66338072D01*
X133309482Y-66325812D01*
X133429180Y-66289502D01*
X133539494Y-66230537D01*
X133636185Y-66151185D01*
X133715537Y-66054494D01*
X133774502Y-65944180D01*
X133810812Y-65824482D01*
X133823072Y-65700000D01*
X133823072Y-63572273D01*
X133846011Y-63581775D01*
X134113589Y-63635000D01*
X134386411Y-63635000D01*
X134538776Y-63604693D01*
X134328889Y-63918810D01*
X134093169Y-64487888D01*
X133973000Y-65092017D01*
X133973000Y-65707983D01*
X134093169Y-66312112D01*
X134328889Y-66881190D01*
X134635456Y-67340000D01*
X82032279Y-67340000D01*
X81740340Y-67311375D01*
X81490571Y-67235965D01*
X81260206Y-67113477D01*
X81058021Y-66948579D01*
X80891712Y-66747546D01*
X80767622Y-66518046D01*
X80690469Y-66268805D01*
X80660000Y-65978911D01*
X80660000Y-56782927D01*
X84972142Y-61095071D01*
G36*
X138259659Y-50688625D02*
G01*
X138509429Y-50764035D01*
X138739792Y-50886522D01*
X138941980Y-51051422D01*
X139108286Y-51252450D01*
X139232378Y-51481954D01*
X139309531Y-51731195D01*
X139340000Y-52021089D01*
X139340000Y-57848602D01*
X139304494Y-57819463D01*
X139194180Y-57760498D01*
X139074482Y-57724188D01*
X138950000Y-57711928D01*
X138335000Y-57711928D01*
X138335000Y-57405752D01*
X138340491Y-57350000D01*
X138318577Y-57127501D01*
X138253676Y-56913553D01*
X138148284Y-56716377D01*
X138041989Y-56586856D01*
X138041987Y-56586854D01*
X138006449Y-56543551D01*
X137963145Y-56508013D01*
X137191995Y-55736864D01*
X137156449Y-55693551D01*
X136983623Y-55551716D01*
X136829770Y-55469480D01*
X136923000Y-55376250D01*
X136923000Y-54027000D01*
X137177000Y-54027000D01*
X137177000Y-55376250D01*
X137335750Y-55535000D01*
X137962542Y-55535000D01*
X138085223Y-55510597D01*
X138200785Y-55462730D01*
X138304789Y-55393237D01*
X138393237Y-55304789D01*
X138462730Y-55200785D01*
X138510597Y-55085223D01*
X138535000Y-54962542D01*
X138535000Y-54185750D01*
X138376250Y-54027000D01*
X137177000Y-54027000D01*
X136923000Y-54027000D01*
X136903000Y-54027000D01*
X136903000Y-53773000D01*
X136923000Y-53773000D01*
X136923000Y-52423750D01*
X137177000Y-52423750D01*
X137177000Y-53773000D01*
X138376250Y-53773000D01*
X138535000Y-53614250D01*
X138535000Y-52837458D01*
X138510597Y-52714777D01*
X138462730Y-52599215D01*
X138393237Y-52495211D01*
X138304789Y-52406763D01*
X138200785Y-52337270D01*
X138085223Y-52289403D01*
X137962542Y-52265000D01*
X137335750Y-52265000D01*
X137177000Y-52423750D01*
X136923000Y-52423750D01*
X136764250Y-52265000D01*
X136137458Y-52265000D01*
X136014777Y-52289403D01*
X135899215Y-52337270D01*
X135795211Y-52406763D01*
X135706763Y-52495211D01*
X135637270Y-52599215D01*
X135599549Y-52690282D01*
X135379014Y-52509294D01*
X135121034Y-52371401D01*
X134841111Y-52286487D01*
X134550000Y-52257815D01*
X134258890Y-52286487D01*
X133978967Y-52371401D01*
X133720987Y-52509294D01*
X133494866Y-52694866D01*
X133309294Y-52920986D01*
X133171401Y-53178966D01*
X133086487Y-53458889D01*
X133065000Y-53677050D01*
X133065000Y-54122949D01*
X133086487Y-54341110D01*
X133171401Y-54621033D01*
X133309294Y-54879013D01*
X133415000Y-55007817D01*
X133415000Y-55844248D01*
X133409509Y-55900000D01*
X133415000Y-55955751D01*
X133431423Y-56122498D01*
X133496324Y-56336446D01*
X133601716Y-56533623D01*
X133743551Y-56706449D01*
X133786865Y-56741996D01*
X134308004Y-57263135D01*
X134343551Y-57306449D01*
X134516377Y-57448284D01*
X134713553Y-57553676D01*
X134862355Y-57598815D01*
X134927500Y-57618577D01*
X135149999Y-57640491D01*
X135205751Y-57635000D01*
X135879868Y-57635000D01*
X135956796Y-57711928D01*
X135450000Y-57711928D01*
X135325518Y-57724188D01*
X135205820Y-57760498D01*
X135095506Y-57819463D01*
X134998815Y-57898815D01*
X134919463Y-57995506D01*
X134860498Y-58105820D01*
X134824188Y-58225518D01*
X134811928Y-58350000D01*
X134811928Y-60650000D01*
X134824188Y-60774482D01*
X134860498Y-60894180D01*
X134919463Y-61004494D01*
X134968710Y-61064502D01*
X134906043Y-61022629D01*
X134653989Y-60918225D01*
X134386411Y-60865000D01*
X134148354Y-60865000D01*
X134175812Y-60774482D01*
X134188072Y-60650000D01*
X134188072Y-58350000D01*
X134175812Y-58225518D01*
X134139502Y-58105820D01*
X134080537Y-57995506D01*
X134001185Y-57898815D01*
X133904494Y-57819463D01*
X133794180Y-57760498D01*
X133674482Y-57724188D01*
X133550000Y-57711928D01*
X130713507Y-57711928D01*
X129406534Y-56404956D01*
X129378817Y-56371183D01*
X129244059Y-56260589D01*
X129090313Y-56178411D01*
X128923490Y-56127805D01*
X128793477Y-56115000D01*
X128793469Y-56115000D01*
X128750000Y-56110719D01*
X128706531Y-56115000D01*
X127636578Y-56115000D01*
X128213507Y-55538072D01*
X129300000Y-55538072D01*
X129424482Y-55525812D01*
X129544180Y-55489502D01*
X129654494Y-55430537D01*
X129751185Y-55351185D01*
X129830537Y-55254494D01*
X129889502Y-55144180D01*
X129925812Y-55024482D01*
X129938072Y-54900000D01*
X129938072Y-52900000D01*
X129925812Y-52775518D01*
X129889502Y-52655820D01*
X129830537Y-52545506D01*
X129751185Y-52448815D01*
X129654494Y-52369463D01*
X129544180Y-52310498D01*
X129424482Y-52274188D01*
X129300000Y-52261928D01*
X127600000Y-52261928D01*
X127475518Y-52274188D01*
X127355820Y-52310498D01*
X127245506Y-52369463D01*
X127148815Y-52448815D01*
X127069463Y-52545506D01*
X127010498Y-52655820D01*
X126996272Y-52702717D01*
X126842046Y-52561336D01*
X126593009Y-52410146D01*
X126319261Y-52310446D01*
X126306890Y-52308524D01*
X126077000Y-52429845D01*
X126077000Y-53773000D01*
X126097000Y-53773000D01*
X126097000Y-54027000D01*
X126077000Y-54027000D01*
X126077000Y-54047000D01*
X125823000Y-54047000D01*
X125823000Y-54027000D01*
X124622768Y-54027000D01*
X124478715Y-54259742D01*
X124547904Y-54542745D01*
X124670975Y-54806812D01*
X124843198Y-55041795D01*
X124923054Y-55115000D01*
X122166579Y-55115000D01*
X121338072Y-54286494D01*
X121338072Y-52900000D01*
X121331479Y-52833058D01*
X121365000Y-52866579D01*
X121365000Y-53136411D01*
X121418225Y-53403989D01*
X121522629Y-53656043D01*
X121674201Y-53882886D01*
X121867114Y-54075799D01*
X122093957Y-54227371D01*
X122346011Y-54331775D01*
X122613589Y-54385000D01*
X122886411Y-54385000D01*
X123153989Y-54331775D01*
X123406043Y-54227371D01*
X123632886Y-54075799D01*
X123825799Y-53882886D01*
X123977371Y-53656043D01*
X124025330Y-53540258D01*
X124478715Y-53540258D01*
X124622768Y-53773000D01*
X125823000Y-53773000D01*
X125823000Y-52429845D01*
X125593110Y-52308524D01*
X125580739Y-52310446D01*
X125306991Y-52410146D01*
X125057954Y-52561336D01*
X124843198Y-52758205D01*
X124670975Y-52993188D01*
X124547904Y-53257255D01*
X124478715Y-53540258D01*
X124025330Y-53540258D01*
X124081775Y-53403989D01*
X124135000Y-53136411D01*
X124135000Y-52863589D01*
X124081775Y-52596011D01*
X123977371Y-52343957D01*
X123825799Y-52117114D01*
X123632886Y-51924201D01*
X123406043Y-51772629D01*
X123153989Y-51668225D01*
X122886411Y-51615000D01*
X122616579Y-51615000D01*
X121661578Y-50660000D01*
X137967721Y-50660000D01*
X138259659Y-50688625D01*
X138259659Y-50688625D01*
G37*
X138259659Y-50688625D02*
X138509429Y-50764035D01*
X138739792Y-50886522D01*
X138941980Y-51051422D01*
X139108286Y-51252450D01*
X139232378Y-51481954D01*
X139309531Y-51731195D01*
X139340000Y-52021089D01*
X139340000Y-57848602D01*
X139304494Y-57819463D01*
X139194180Y-57760498D01*
X139074482Y-57724188D01*
X138950000Y-57711928D01*
X138335000Y-57711928D01*
X138335000Y-57405752D01*
X138340491Y-57350000D01*
X138318577Y-57127501D01*
X138253676Y-56913553D01*
X138148284Y-56716377D01*
X138041989Y-56586856D01*
X138041987Y-56586854D01*
X138006449Y-56543551D01*
X137963145Y-56508013D01*
X137191995Y-55736864D01*
X137156449Y-55693551D01*
X136983623Y-55551716D01*
X136829770Y-55469480D01*
X136923000Y-55376250D01*
X136923000Y-54027000D01*
X137177000Y-54027000D01*
X137177000Y-55376250D01*
X137335750Y-55535000D01*
X137962542Y-55535000D01*
X138085223Y-55510597D01*
X138200785Y-55462730D01*
X138304789Y-55393237D01*
X138393237Y-55304789D01*
X138462730Y-55200785D01*
X138510597Y-55085223D01*
X138535000Y-54962542D01*
X138535000Y-54185750D01*
X138376250Y-54027000D01*
X137177000Y-54027000D01*
X136923000Y-54027000D01*
X136903000Y-54027000D01*
X136903000Y-53773000D01*
X136923000Y-53773000D01*
X136923000Y-52423750D01*
X137177000Y-52423750D01*
X137177000Y-53773000D01*
X138376250Y-53773000D01*
X138535000Y-53614250D01*
X138535000Y-52837458D01*
X138510597Y-52714777D01*
X138462730Y-52599215D01*
X138393237Y-52495211D01*
X138304789Y-52406763D01*
X138200785Y-52337270D01*
X138085223Y-52289403D01*
X137962542Y-52265000D01*
X137335750Y-52265000D01*
X137177000Y-52423750D01*
X136923000Y-52423750D01*
X136764250Y-52265000D01*
X136137458Y-52265000D01*
X136014777Y-52289403D01*
X135899215Y-52337270D01*
X135795211Y-52406763D01*
X135706763Y-52495211D01*
X135637270Y-52599215D01*
X135599549Y-52690282D01*
X135379014Y-52509294D01*
X135121034Y-52371401D01*
X134841111Y-52286487D01*
X134550000Y-52257815D01*
X134258890Y-52286487D01*
X133978967Y-52371401D01*
X133720987Y-52509294D01*
X133494866Y-52694866D01*
X133309294Y-52920986D01*
X133171401Y-53178966D01*
X133086487Y-53458889D01*
X133065000Y-53677050D01*
X133065000Y-54122949D01*
X133086487Y-54341110D01*
X133171401Y-54621033D01*
X133309294Y-54879013D01*
X133415000Y-55007817D01*
X133415000Y-55844248D01*
X133409509Y-55900000D01*
X133415000Y-55955751D01*
X133431423Y-56122498D01*
X133496324Y-56336446D01*
X133601716Y-56533623D01*
X133743551Y-56706449D01*
X133786865Y-56741996D01*
X134308004Y-57263135D01*
X134343551Y-57306449D01*
X134516377Y-57448284D01*
X134713553Y-57553676D01*
X134862355Y-57598815D01*
X134927500Y-57618577D01*
X135149999Y-57640491D01*
X135205751Y-57635000D01*
X135879868Y-57635000D01*
X135956796Y-57711928D01*
X135450000Y-57711928D01*
X135325518Y-57724188D01*
X135205820Y-57760498D01*
X135095506Y-57819463D01*
X134998815Y-57898815D01*
X134919463Y-57995506D01*
X134860498Y-58105820D01*
X134824188Y-58225518D01*
X134811928Y-58350000D01*
X134811928Y-60650000D01*
X134824188Y-60774482D01*
X134860498Y-60894180D01*
X134919463Y-61004494D01*
X134968710Y-61064502D01*
X134906043Y-61022629D01*
X134653989Y-60918225D01*
X134386411Y-60865000D01*
X134148354Y-60865000D01*
X134175812Y-60774482D01*
X134188072Y-60650000D01*
X134188072Y-58350000D01*
X134175812Y-58225518D01*
X134139502Y-58105820D01*
X134080537Y-57995506D01*
X134001185Y-57898815D01*
X133904494Y-57819463D01*
X133794180Y-57760498D01*
X133674482Y-57724188D01*
X133550000Y-57711928D01*
X130713507Y-57711928D01*
X129406534Y-56404956D01*
X129378817Y-56371183D01*
X129244059Y-56260589D01*
X129090313Y-56178411D01*
X128923490Y-56127805D01*
X128793477Y-56115000D01*
X128793469Y-56115000D01*
X128750000Y-56110719D01*
X128706531Y-56115000D01*
X127636578Y-56115000D01*
X128213507Y-55538072D01*
X129300000Y-55538072D01*
X129424482Y-55525812D01*
X129544180Y-55489502D01*
X129654494Y-55430537D01*
X129751185Y-55351185D01*
X129830537Y-55254494D01*
X129889502Y-55144180D01*
X129925812Y-55024482D01*
X129938072Y-54900000D01*
X129938072Y-52900000D01*
X129925812Y-52775518D01*
X129889502Y-52655820D01*
X129830537Y-52545506D01*
X129751185Y-52448815D01*
X129654494Y-52369463D01*
X129544180Y-52310498D01*
X129424482Y-52274188D01*
X129300000Y-52261928D01*
X127600000Y-52261928D01*
X127475518Y-52274188D01*
X127355820Y-52310498D01*
X127245506Y-52369463D01*
X127148815Y-52448815D01*
X127069463Y-52545506D01*
X127010498Y-52655820D01*
X126996272Y-52702717D01*
X126842046Y-52561336D01*
X126593009Y-52410146D01*
X126319261Y-52310446D01*
X126306890Y-52308524D01*
X126077000Y-52429845D01*
X126077000Y-53773000D01*
X126097000Y-53773000D01*
X126097000Y-54027000D01*
X126077000Y-54027000D01*
X126077000Y-54047000D01*
X125823000Y-54047000D01*
X125823000Y-54027000D01*
X124622768Y-54027000D01*
X124478715Y-54259742D01*
X124547904Y-54542745D01*
X124670975Y-54806812D01*
X124843198Y-55041795D01*
X124923054Y-55115000D01*
X122166579Y-55115000D01*
X121338072Y-54286494D01*
X121338072Y-52900000D01*
X121331479Y-52833058D01*
X121365000Y-52866579D01*
X121365000Y-53136411D01*
X121418225Y-53403989D01*
X121522629Y-53656043D01*
X121674201Y-53882886D01*
X121867114Y-54075799D01*
X122093957Y-54227371D01*
X122346011Y-54331775D01*
X122613589Y-54385000D01*
X122886411Y-54385000D01*
X123153989Y-54331775D01*
X123406043Y-54227371D01*
X123632886Y-54075799D01*
X123825799Y-53882886D01*
X123977371Y-53656043D01*
X124025330Y-53540258D01*
X124478715Y-53540258D01*
X124622768Y-53773000D01*
X125823000Y-53773000D01*
X125823000Y-52429845D01*
X125593110Y-52308524D01*
X125580739Y-52310446D01*
X125306991Y-52410146D01*
X125057954Y-52561336D01*
X124843198Y-52758205D01*
X124670975Y-52993188D01*
X124547904Y-53257255D01*
X124478715Y-53540258D01*
X124025330Y-53540258D01*
X124081775Y-53403989D01*
X124135000Y-53136411D01*
X124135000Y-52863589D01*
X124081775Y-52596011D01*
X123977371Y-52343957D01*
X123825799Y-52117114D01*
X123632886Y-51924201D01*
X123406043Y-51772629D01*
X123153989Y-51668225D01*
X122886411Y-51615000D01*
X122616579Y-51615000D01*
X121661578Y-50660000D01*
X137967721Y-50660000D01*
X138259659Y-50688625D01*
G36*
X90309294Y-52920986D02*
G01*
X90171401Y-53178966D01*
X90086487Y-53458889D01*
X90065000Y-53677050D01*
X90065000Y-54122949D01*
X90086487Y-54341110D01*
X90171401Y-54621033D01*
X90309294Y-54879013D01*
X90494866Y-55105134D01*
X90720986Y-55290706D01*
X90978966Y-55428599D01*
X91258889Y-55513513D01*
X91550000Y-55542185D01*
X91841110Y-55513513D01*
X92121033Y-55428599D01*
X92379013Y-55290706D01*
X92599549Y-55109718D01*
X92637270Y-55200785D01*
X92706763Y-55304789D01*
X92795211Y-55393237D01*
X92899215Y-55462730D01*
X93014777Y-55510597D01*
X93137458Y-55535000D01*
X93764250Y-55535000D01*
X93923000Y-55376250D01*
X93923000Y-54027000D01*
X94177000Y-54027000D01*
X94177000Y-55376250D01*
X94335750Y-55535000D01*
X94962542Y-55535000D01*
X95085223Y-55510597D01*
X95200785Y-55462730D01*
X95304789Y-55393237D01*
X95393237Y-55304789D01*
X95462730Y-55200785D01*
X95510597Y-55085223D01*
X95535000Y-54962542D01*
X95535000Y-54259742D01*
X98678715Y-54259742D01*
X98747904Y-54542745D01*
X98870975Y-54806812D01*
X99043198Y-55041795D01*
X99257954Y-55238664D01*
X99506991Y-55389854D01*
X99780739Y-55489554D01*
X99793110Y-55491476D01*
X100023000Y-55370155D01*
X100023000Y-54027000D01*
X98822768Y-54027000D01*
X98678715Y-54259742D01*
X95535000Y-54259742D01*
X95535000Y-54185750D01*
X95376250Y-54027000D01*
X94177000Y-54027000D01*
X93923000Y-54027000D01*
X93903000Y-54027000D01*
X93903000Y-53773000D01*
X93923000Y-53773000D01*
X93923000Y-53753000D01*
X94177000Y-53753000D01*
X94177000Y-53773000D01*
X95376250Y-53773000D01*
X95535000Y-53614250D01*
X95535000Y-52885000D01*
X98950268Y-52885000D01*
X98870975Y-52993188D01*
X98747904Y-53257255D01*
X98678715Y-53540258D01*
X98822768Y-53773000D01*
X100023000Y-53773000D01*
X100023000Y-53753000D01*
X100277000Y-53753000D01*
X100277000Y-53773000D01*
X100297000Y-53773000D01*
X100297000Y-54027000D01*
X100277000Y-54027000D01*
X100277000Y-55370155D01*
X100506890Y-55491476D01*
X100519261Y-55489554D01*
X100793009Y-55389854D01*
X101042046Y-55238664D01*
X101196272Y-55097283D01*
X101210498Y-55144180D01*
X101269463Y-55254494D01*
X101348815Y-55351185D01*
X101445506Y-55430537D01*
X101517796Y-55469178D01*
X101506763Y-55480211D01*
X101437270Y-55584215D01*
X101389403Y-55699777D01*
X101365000Y-55822458D01*
X101365000Y-56171750D01*
X101523750Y-56330500D01*
X102623000Y-56330500D01*
X102623000Y-56310500D01*
X102877000Y-56310500D01*
X102877000Y-56330500D01*
X102897000Y-56330500D01*
X102897000Y-56584500D01*
X102877000Y-56584500D01*
X102877000Y-56604500D01*
X102623000Y-56604500D01*
X102623000Y-56584500D01*
X101523750Y-56584500D01*
X101365000Y-56743250D01*
X101365000Y-57092542D01*
X101389403Y-57215223D01*
X101437270Y-57330785D01*
X101506763Y-57434789D01*
X101571869Y-57499895D01*
X101548815Y-57518815D01*
X101469463Y-57615506D01*
X101410498Y-57725820D01*
X101374188Y-57845518D01*
X101361928Y-57970000D01*
X101361928Y-59115000D01*
X101362598Y-59121808D01*
X101293477Y-59115000D01*
X101293469Y-59115000D01*
X101250000Y-59110719D01*
X101206531Y-59115000D01*
X100385000Y-59115000D01*
X100385000Y-57750969D01*
X100389281Y-57707500D01*
X100385000Y-57664031D01*
X100385000Y-57664023D01*
X100372195Y-57534010D01*
X100321589Y-57367187D01*
X100239411Y-57213441D01*
X100128817Y-57078683D01*
X100095045Y-57050967D01*
X99656534Y-56612456D01*
X99628817Y-56578683D01*
X99494059Y-56468089D01*
X99340313Y-56385911D01*
X99173490Y-56335305D01*
X99053512Y-56323488D01*
X99030537Y-56280506D01*
X98951185Y-56183815D01*
X98854494Y-56104463D01*
X98744180Y-56045498D01*
X98624482Y-56009188D01*
X98500000Y-55996928D01*
X97000000Y-55996928D01*
X96875518Y-56009188D01*
X96755820Y-56045498D01*
X96645506Y-56104463D01*
X96548815Y-56183815D01*
X96469463Y-56280506D01*
X96446488Y-56323488D01*
X96326510Y-56335305D01*
X96159687Y-56385911D01*
X96005941Y-56468089D01*
X95871183Y-56578683D01*
X95843466Y-56612456D01*
X95635000Y-56820922D01*
X95635000Y-56572458D01*
X95610597Y-56449777D01*
X95562730Y-56334215D01*
X95493237Y-56230211D01*
X95404789Y-56141763D01*
X95300785Y-56072270D01*
X95185223Y-56024403D01*
X95062542Y-56000000D01*
X94535750Y-56000000D01*
X94377000Y-56158750D01*
X94377000Y-57080500D01*
X94397000Y-57080500D01*
X94397000Y-57334500D01*
X94377000Y-57334500D01*
X94377000Y-57354500D01*
X94123000Y-57354500D01*
X94123000Y-57334500D01*
X93023750Y-57334500D01*
X92865000Y-57493250D01*
X92865000Y-57842542D01*
X92889403Y-57965223D01*
X92937270Y-58080785D01*
X93006763Y-58184789D01*
X93071869Y-58249895D01*
X93048815Y-58268815D01*
X92969463Y-58365506D01*
X92910498Y-58475820D01*
X92874188Y-58595518D01*
X92861928Y-58720000D01*
X92861928Y-59610349D01*
X91656534Y-58404956D01*
X91628817Y-58371183D01*
X91494059Y-58260589D01*
X91340313Y-58178411D01*
X91173490Y-58127805D01*
X91043477Y-58115000D01*
X91043469Y-58115000D01*
X91000000Y-58110719D01*
X90956531Y-58115000D01*
X86616579Y-58115000D01*
X85074037Y-56572458D01*
X92865000Y-56572458D01*
X92865000Y-56921750D01*
X93023750Y-57080500D01*
X94123000Y-57080500D01*
X94123000Y-56158750D01*
X93964250Y-56000000D01*
X93437458Y-56000000D01*
X93314777Y-56024403D01*
X93199215Y-56072270D01*
X93095211Y-56141763D01*
X93006763Y-56230211D01*
X92937270Y-56334215D01*
X92889403Y-56449777D01*
X92865000Y-56572458D01*
X85074037Y-56572458D01*
X83835000Y-55333422D01*
X83835000Y-55244759D01*
X83999549Y-55109718D01*
X84037270Y-55200785D01*
X84106763Y-55304789D01*
X84195211Y-55393237D01*
X84299215Y-55462730D01*
X84414777Y-55510597D01*
X84537458Y-55535000D01*
X85164250Y-55535000D01*
X85323000Y-55376250D01*
X85323000Y-54027000D01*
X85577000Y-54027000D01*
X85577000Y-55376250D01*
X85735750Y-55535000D01*
X86362542Y-55535000D01*
X86485223Y-55510597D01*
X86600785Y-55462730D01*
X86704789Y-55393237D01*
X86793237Y-55304789D01*
X86862730Y-55200785D01*
X86910597Y-55085223D01*
X86935000Y-54962542D01*
X86935000Y-54185750D01*
X86776250Y-54027000D01*
X85577000Y-54027000D01*
X85323000Y-54027000D01*
X85303000Y-54027000D01*
X85303000Y-53773000D01*
X85323000Y-53773000D01*
X85323000Y-53753000D01*
X85577000Y-53753000D01*
X85577000Y-53773000D01*
X86776250Y-53773000D01*
X86935000Y-53614250D01*
X86935000Y-52885000D01*
X90338827Y-52885000D01*
X90309294Y-52920986D01*
X90309294Y-52920986D01*
G37*
X90309294Y-52920986D02*
X90171401Y-53178966D01*
X90086487Y-53458889D01*
X90065000Y-53677050D01*
X90065000Y-54122949D01*
X90086487Y-54341110D01*
X90171401Y-54621033D01*
X90309294Y-54879013D01*
X90494866Y-55105134D01*
X90720986Y-55290706D01*
X90978966Y-55428599D01*
X91258889Y-55513513D01*
X91550000Y-55542185D01*
X91841110Y-55513513D01*
X92121033Y-55428599D01*
X92379013Y-55290706D01*
X92599549Y-55109718D01*
X92637270Y-55200785D01*
X92706763Y-55304789D01*
X92795211Y-55393237D01*
X92899215Y-55462730D01*
X93014777Y-55510597D01*
X93137458Y-55535000D01*
X93764250Y-55535000D01*
X93923000Y-55376250D01*
X93923000Y-54027000D01*
X94177000Y-54027000D01*
X94177000Y-55376250D01*
X94335750Y-55535000D01*
X94962542Y-55535000D01*
X95085223Y-55510597D01*
X95200785Y-55462730D01*
X95304789Y-55393237D01*
X95393237Y-55304789D01*
X95462730Y-55200785D01*
X95510597Y-55085223D01*
X95535000Y-54962542D01*
X95535000Y-54259742D01*
X98678715Y-54259742D01*
X98747904Y-54542745D01*
X98870975Y-54806812D01*
X99043198Y-55041795D01*
X99257954Y-55238664D01*
X99506991Y-55389854D01*
X99780739Y-55489554D01*
X99793110Y-55491476D01*
X100023000Y-55370155D01*
X100023000Y-54027000D01*
X98822768Y-54027000D01*
X98678715Y-54259742D01*
X95535000Y-54259742D01*
X95535000Y-54185750D01*
X95376250Y-54027000D01*
X94177000Y-54027000D01*
X93923000Y-54027000D01*
X93903000Y-54027000D01*
X93903000Y-53773000D01*
X93923000Y-53773000D01*
X93923000Y-53753000D01*
X94177000Y-53753000D01*
X94177000Y-53773000D01*
X95376250Y-53773000D01*
X95535000Y-53614250D01*
X95535000Y-52885000D01*
X98950268Y-52885000D01*
X98870975Y-52993188D01*
X98747904Y-53257255D01*
X98678715Y-53540258D01*
X98822768Y-53773000D01*
X100023000Y-53773000D01*
X100023000Y-53753000D01*
X100277000Y-53753000D01*
X100277000Y-53773000D01*
X100297000Y-53773000D01*
X100297000Y-54027000D01*
X100277000Y-54027000D01*
X100277000Y-55370155D01*
X100506890Y-55491476D01*
X100519261Y-55489554D01*
X100793009Y-55389854D01*
X101042046Y-55238664D01*
X101196272Y-55097283D01*
X101210498Y-55144180D01*
X101269463Y-55254494D01*
X101348815Y-55351185D01*
X101445506Y-55430537D01*
X101517796Y-55469178D01*
X101506763Y-55480211D01*
X101437270Y-55584215D01*
X101389403Y-55699777D01*
X101365000Y-55822458D01*
X101365000Y-56171750D01*
X101523750Y-56330500D01*
X102623000Y-56330500D01*
X102623000Y-56310500D01*
X102877000Y-56310500D01*
X102877000Y-56330500D01*
X102897000Y-56330500D01*
X102897000Y-56584500D01*
X102877000Y-56584500D01*
X102877000Y-56604500D01*
X102623000Y-56604500D01*
X102623000Y-56584500D01*
X101523750Y-56584500D01*
X101365000Y-56743250D01*
X101365000Y-57092542D01*
X101389403Y-57215223D01*
X101437270Y-57330785D01*
X101506763Y-57434789D01*
X101571869Y-57499895D01*
X101548815Y-57518815D01*
X101469463Y-57615506D01*
X101410498Y-57725820D01*
X101374188Y-57845518D01*
X101361928Y-57970000D01*
X101361928Y-59115000D01*
X101362598Y-59121808D01*
X101293477Y-59115000D01*
X101293469Y-59115000D01*
X101250000Y-59110719D01*
X101206531Y-59115000D01*
X100385000Y-59115000D01*
X100385000Y-57750969D01*
X100389281Y-57707500D01*
X100385000Y-57664031D01*
X100385000Y-57664023D01*
X100372195Y-57534010D01*
X100321589Y-57367187D01*
X100239411Y-57213441D01*
X100128817Y-57078683D01*
X100095045Y-57050967D01*
X99656534Y-56612456D01*
X99628817Y-56578683D01*
X99494059Y-56468089D01*
X99340313Y-56385911D01*
X99173490Y-56335305D01*
X99053512Y-56323488D01*
X99030537Y-56280506D01*
X98951185Y-56183815D01*
X98854494Y-56104463D01*
X98744180Y-56045498D01*
X98624482Y-56009188D01*
X98500000Y-55996928D01*
X97000000Y-55996928D01*
X96875518Y-56009188D01*
X96755820Y-56045498D01*
X96645506Y-56104463D01*
X96548815Y-56183815D01*
X96469463Y-56280506D01*
X96446488Y-56323488D01*
X96326510Y-56335305D01*
X96159687Y-56385911D01*
X96005941Y-56468089D01*
X95871183Y-56578683D01*
X95843466Y-56612456D01*
X95635000Y-56820922D01*
X95635000Y-56572458D01*
X95610597Y-56449777D01*
X95562730Y-56334215D01*
X95493237Y-56230211D01*
X95404789Y-56141763D01*
X95300785Y-56072270D01*
X95185223Y-56024403D01*
X95062542Y-56000000D01*
X94535750Y-56000000D01*
X94377000Y-56158750D01*
X94377000Y-57080500D01*
X94397000Y-57080500D01*
X94397000Y-57334500D01*
X94377000Y-57334500D01*
X94377000Y-57354500D01*
X94123000Y-57354500D01*
X94123000Y-57334500D01*
X93023750Y-57334500D01*
X92865000Y-57493250D01*
X92865000Y-57842542D01*
X92889403Y-57965223D01*
X92937270Y-58080785D01*
X93006763Y-58184789D01*
X93071869Y-58249895D01*
X93048815Y-58268815D01*
X92969463Y-58365506D01*
X92910498Y-58475820D01*
X92874188Y-58595518D01*
X92861928Y-58720000D01*
X92861928Y-59610349D01*
X91656534Y-58404956D01*
X91628817Y-58371183D01*
X91494059Y-58260589D01*
X91340313Y-58178411D01*
X91173490Y-58127805D01*
X91043477Y-58115000D01*
X91043469Y-58115000D01*
X91000000Y-58110719D01*
X90956531Y-58115000D01*
X86616579Y-58115000D01*
X85074037Y-56572458D01*
X92865000Y-56572458D01*
X92865000Y-56921750D01*
X93023750Y-57080500D01*
X94123000Y-57080500D01*
X94123000Y-56158750D01*
X93964250Y-56000000D01*
X93437458Y-56000000D01*
X93314777Y-56024403D01*
X93199215Y-56072270D01*
X93095211Y-56141763D01*
X93006763Y-56230211D01*
X92937270Y-56334215D01*
X92889403Y-56449777D01*
X92865000Y-56572458D01*
X85074037Y-56572458D01*
X83835000Y-55333422D01*
X83835000Y-55244759D01*
X83999549Y-55109718D01*
X84037270Y-55200785D01*
X84106763Y-55304789D01*
X84195211Y-55393237D01*
X84299215Y-55462730D01*
X84414777Y-55510597D01*
X84537458Y-55535000D01*
X85164250Y-55535000D01*
X85323000Y-55376250D01*
X85323000Y-54027000D01*
X85577000Y-54027000D01*
X85577000Y-55376250D01*
X85735750Y-55535000D01*
X86362542Y-55535000D01*
X86485223Y-55510597D01*
X86600785Y-55462730D01*
X86704789Y-55393237D01*
X86793237Y-55304789D01*
X86862730Y-55200785D01*
X86910597Y-55085223D01*
X86935000Y-54962542D01*
X86935000Y-54185750D01*
X86776250Y-54027000D01*
X85577000Y-54027000D01*
X85323000Y-54027000D01*
X85303000Y-54027000D01*
X85303000Y-53773000D01*
X85323000Y-53773000D01*
X85323000Y-53753000D01*
X85577000Y-53753000D01*
X85577000Y-53773000D01*
X86776250Y-53773000D01*
X86935000Y-53614250D01*
X86935000Y-52885000D01*
X90338827Y-52885000D01*
X90309294Y-52920986D01*
G36*
X114984925Y-56936502D02*
G01*
X114905820Y-56960498D01*
X114795506Y-57019463D01*
X114725955Y-57076542D01*
X114704502Y-57005820D01*
X114645537Y-56895506D01*
X114566185Y-56798815D01*
X114469494Y-56719463D01*
X114359180Y-56660498D01*
X114239482Y-56624188D01*
X114115000Y-56611928D01*
X112970000Y-56611928D01*
X112845518Y-56624188D01*
X112725820Y-56660498D01*
X112615506Y-56719463D01*
X112518815Y-56798815D01*
X112500000Y-56821741D01*
X112481185Y-56798815D01*
X112384494Y-56719463D01*
X112274180Y-56660498D01*
X112154482Y-56624188D01*
X112030000Y-56611928D01*
X110885000Y-56611928D01*
X110760518Y-56624188D01*
X110640820Y-56660498D01*
X110530506Y-56719463D01*
X110433815Y-56798815D01*
X110354463Y-56895506D01*
X110295498Y-57005820D01*
X110262379Y-57115000D01*
X110214620Y-57115000D01*
X110235000Y-57012542D01*
X110235000Y-56785750D01*
X110076250Y-56627000D01*
X109327000Y-56627000D01*
X109327000Y-56647000D01*
X109073000Y-56647000D01*
X109073000Y-56627000D01*
X109053000Y-56627000D01*
X109053000Y-56373000D01*
X109073000Y-56373000D01*
X109073000Y-56353000D01*
X109327000Y-56353000D01*
X109327000Y-56373000D01*
X110076250Y-56373000D01*
X110235000Y-56214250D01*
X110235000Y-55987458D01*
X110210597Y-55864777D01*
X110162730Y-55749215D01*
X110093237Y-55645211D01*
X110004789Y-55556763D01*
X109900785Y-55487270D01*
X109785223Y-55439403D01*
X109662542Y-55415000D01*
X109485750Y-55415000D01*
X109327002Y-55573748D01*
X109327002Y-55415000D01*
X109323965Y-55415000D01*
X109393009Y-55389854D01*
X109642046Y-55238664D01*
X109796272Y-55097283D01*
X109810498Y-55144180D01*
X109869463Y-55254494D01*
X109948815Y-55351185D01*
X110045506Y-55430537D01*
X110155820Y-55489502D01*
X110275518Y-55525812D01*
X110400000Y-55538072D01*
X112100000Y-55538072D01*
X112224482Y-55525812D01*
X112344180Y-55489502D01*
X112454494Y-55430537D01*
X112551185Y-55351185D01*
X112630537Y-55254494D01*
X112689502Y-55144180D01*
X112725812Y-55024482D01*
X112738072Y-54900000D01*
X112738072Y-54785000D01*
X112833424Y-54785000D01*
X114984925Y-56936502D01*
X114984925Y-56936502D01*
G37*
X114984925Y-56936502D02*
X114905820Y-56960498D01*
X114795506Y-57019463D01*
X114725955Y-57076542D01*
X114704502Y-57005820D01*
X114645537Y-56895506D01*
X114566185Y-56798815D01*
X114469494Y-56719463D01*
X114359180Y-56660498D01*
X114239482Y-56624188D01*
X114115000Y-56611928D01*
X112970000Y-56611928D01*
X112845518Y-56624188D01*
X112725820Y-56660498D01*
X112615506Y-56719463D01*
X112518815Y-56798815D01*
X112500000Y-56821741D01*
X112481185Y-56798815D01*
X112384494Y-56719463D01*
X112274180Y-56660498D01*
X112154482Y-56624188D01*
X112030000Y-56611928D01*
X110885000Y-56611928D01*
X110760518Y-56624188D01*
X110640820Y-56660498D01*
X110530506Y-56719463D01*
X110433815Y-56798815D01*
X110354463Y-56895506D01*
X110295498Y-57005820D01*
X110262379Y-57115000D01*
X110214620Y-57115000D01*
X110235000Y-57012542D01*
X110235000Y-56785750D01*
X110076250Y-56627000D01*
X109327000Y-56627000D01*
X109327000Y-56647000D01*
X109073000Y-56647000D01*
X109073000Y-56627000D01*
X109053000Y-56627000D01*
X109053000Y-56373000D01*
X109073000Y-56373000D01*
X109073000Y-56353000D01*
X109327000Y-56353000D01*
X109327000Y-56373000D01*
X110076250Y-56373000D01*
X110235000Y-56214250D01*
X110235000Y-55987458D01*
X110210597Y-55864777D01*
X110162730Y-55749215D01*
X110093237Y-55645211D01*
X110004789Y-55556763D01*
X109900785Y-55487270D01*
X109785223Y-55439403D01*
X109662542Y-55415000D01*
X109485750Y-55415000D01*
X109327002Y-55573748D01*
X109327002Y-55415000D01*
X109323965Y-55415000D01*
X109393009Y-55389854D01*
X109642046Y-55238664D01*
X109796272Y-55097283D01*
X109810498Y-55144180D01*
X109869463Y-55254494D01*
X109948815Y-55351185D01*
X110045506Y-55430537D01*
X110155820Y-55489502D01*
X110275518Y-55525812D01*
X110400000Y-55538072D01*
X112100000Y-55538072D01*
X112224482Y-55525812D01*
X112344180Y-55489502D01*
X112454494Y-55430537D01*
X112551185Y-55351185D01*
X112630537Y-55254494D01*
X112689502Y-55144180D01*
X112725812Y-55024482D01*
X112738072Y-54900000D01*
X112738072Y-54785000D01*
X112833424Y-54785000D01*
X114984925Y-56936502D01*
G36*
X120766943Y-52268521D02*
G01*
X120700000Y-52261928D01*
X119000000Y-52261928D01*
X118875518Y-52274188D01*
X118755820Y-52310498D01*
X118645506Y-52369463D01*
X118548815Y-52448815D01*
X118469463Y-52545506D01*
X118410498Y-52655820D01*
X118396272Y-52702717D01*
X118242046Y-52561336D01*
X117993009Y-52410146D01*
X117719261Y-52310446D01*
X117706890Y-52308524D01*
X117477000Y-52429845D01*
X117477000Y-53773000D01*
X117497000Y-53773000D01*
X117497000Y-54027000D01*
X117477000Y-54027000D01*
X117477000Y-55370155D01*
X117706890Y-55491476D01*
X117719261Y-55489554D01*
X117993009Y-55389854D01*
X118242046Y-55238664D01*
X118396272Y-55097283D01*
X118410498Y-55144180D01*
X118469463Y-55254494D01*
X118548815Y-55351185D01*
X118645506Y-55430537D01*
X118755820Y-55489502D01*
X118875518Y-55525812D01*
X119000000Y-55538072D01*
X120086494Y-55538072D01*
X120663421Y-56115000D01*
X118543465Y-56115000D01*
X118499999Y-56110719D01*
X118456533Y-56115000D01*
X118456523Y-56115000D01*
X118326510Y-56127805D01*
X118159687Y-56178411D01*
X118005941Y-56260589D01*
X117871183Y-56371183D01*
X117843466Y-56404956D01*
X117654952Y-56593470D01*
X117621184Y-56621183D01*
X117593471Y-56654951D01*
X117593468Y-56654954D01*
X117540527Y-56719463D01*
X117510590Y-56755941D01*
X117428412Y-56909687D01*
X117427732Y-56911928D01*
X117337437Y-56911928D01*
X117321589Y-56859685D01*
X117239411Y-56705939D01*
X117156532Y-56604951D01*
X117156530Y-56604949D01*
X117128817Y-56571181D01*
X117095049Y-56543468D01*
X114811323Y-54259742D01*
X115878715Y-54259742D01*
X115947904Y-54542745D01*
X116070975Y-54806812D01*
X116243198Y-55041795D01*
X116457954Y-55238664D01*
X116706991Y-55389854D01*
X116980739Y-55489554D01*
X116993110Y-55491476D01*
X117223000Y-55370155D01*
X117223000Y-54027000D01*
X116022768Y-54027000D01*
X115878715Y-54259742D01*
X114811323Y-54259742D01*
X114091839Y-53540258D01*
X115878715Y-53540258D01*
X116022768Y-53773000D01*
X117223000Y-53773000D01*
X117223000Y-52429845D01*
X116993110Y-52308524D01*
X116980739Y-52310446D01*
X116706991Y-52410146D01*
X116457954Y-52561336D01*
X116243198Y-52758205D01*
X116070975Y-52993188D01*
X115947904Y-53257255D01*
X115878715Y-53540258D01*
X114091839Y-53540258D01*
X113856536Y-53304956D01*
X113828819Y-53271183D01*
X113694061Y-53160589D01*
X113540315Y-53078411D01*
X113373492Y-53027805D01*
X113243479Y-53015000D01*
X113243471Y-53015000D01*
X113200002Y-53010719D01*
X113156533Y-53015000D01*
X112738072Y-53015000D01*
X112738072Y-52900000D01*
X112725812Y-52775518D01*
X112689502Y-52655820D01*
X112630537Y-52545506D01*
X112551185Y-52448815D01*
X112454494Y-52369463D01*
X112344180Y-52310498D01*
X112224482Y-52274188D01*
X112100000Y-52261928D01*
X110400000Y-52261928D01*
X110275518Y-52274188D01*
X110155820Y-52310498D01*
X110045506Y-52369463D01*
X109948815Y-52448815D01*
X109869463Y-52545506D01*
X109810498Y-52655820D01*
X109796272Y-52702717D01*
X109642046Y-52561336D01*
X109393009Y-52410146D01*
X109119261Y-52310446D01*
X109106890Y-52308524D01*
X108877000Y-52429845D01*
X108877000Y-53773000D01*
X108897000Y-53773000D01*
X108897000Y-54027000D01*
X108877000Y-54027000D01*
X108877000Y-54047000D01*
X108623000Y-54047000D01*
X108623000Y-54027000D01*
X107422768Y-54027000D01*
X107278715Y-54259742D01*
X107347904Y-54542745D01*
X107470975Y-54806812D01*
X107643198Y-55041795D01*
X107857954Y-55238664D01*
X108106991Y-55389854D01*
X108380739Y-55489554D01*
X108393110Y-55491476D01*
X108622998Y-55370156D01*
X108622998Y-55437768D01*
X108614777Y-55439403D01*
X108499215Y-55487270D01*
X108395211Y-55556763D01*
X108306763Y-55645211D01*
X108249479Y-55730943D01*
X108230537Y-55695506D01*
X108151185Y-55598815D01*
X108054494Y-55519463D01*
X107944180Y-55460498D01*
X107824482Y-55424188D01*
X107700000Y-55411928D01*
X106900000Y-55411928D01*
X106775518Y-55424188D01*
X106655820Y-55460498D01*
X106545506Y-55519463D01*
X106448815Y-55598815D01*
X106369463Y-55695506D01*
X106360932Y-55711466D01*
X106339502Y-55640820D01*
X106280537Y-55530506D01*
X106201185Y-55433815D01*
X106104494Y-55354463D01*
X105994180Y-55295498D01*
X105885000Y-55262379D01*
X105885000Y-53540258D01*
X107278715Y-53540258D01*
X107422768Y-53773000D01*
X108623000Y-53773000D01*
X108623000Y-52429845D01*
X108393110Y-52308524D01*
X108380739Y-52310446D01*
X108106991Y-52410146D01*
X107857954Y-52561336D01*
X107643198Y-52758205D01*
X107470975Y-52993188D01*
X107347904Y-53257255D01*
X107278715Y-53540258D01*
X105885000Y-53540258D01*
X105885000Y-52793465D01*
X105889281Y-52749999D01*
X105885000Y-52706533D01*
X105885000Y-52706523D01*
X105872195Y-52576510D01*
X105821589Y-52409687D01*
X105739411Y-52255941D01*
X105678076Y-52181205D01*
X105656532Y-52154953D01*
X105656530Y-52154951D01*
X105640156Y-52135000D01*
X120633422Y-52135000D01*
X120766943Y-52268521D01*
X120766943Y-52268521D01*
G37*
X120766943Y-52268521D02*
X120700000Y-52261928D01*
X119000000Y-52261928D01*
X118875518Y-52274188D01*
X118755820Y-52310498D01*
X118645506Y-52369463D01*
X118548815Y-52448815D01*
X118469463Y-52545506D01*
X118410498Y-52655820D01*
X118396272Y-52702717D01*
X118242046Y-52561336D01*
X117993009Y-52410146D01*
X117719261Y-52310446D01*
X117706890Y-52308524D01*
X117477000Y-52429845D01*
X117477000Y-53773000D01*
X117497000Y-53773000D01*
X117497000Y-54027000D01*
X117477000Y-54027000D01*
X117477000Y-55370155D01*
X117706890Y-55491476D01*
X117719261Y-55489554D01*
X117993009Y-55389854D01*
X118242046Y-55238664D01*
X118396272Y-55097283D01*
X118410498Y-55144180D01*
X118469463Y-55254494D01*
X118548815Y-55351185D01*
X118645506Y-55430537D01*
X118755820Y-55489502D01*
X118875518Y-55525812D01*
X119000000Y-55538072D01*
X120086494Y-55538072D01*
X120663421Y-56115000D01*
X118543465Y-56115000D01*
X118499999Y-56110719D01*
X118456533Y-56115000D01*
X118456523Y-56115000D01*
X118326510Y-56127805D01*
X118159687Y-56178411D01*
X118005941Y-56260589D01*
X117871183Y-56371183D01*
X117843466Y-56404956D01*
X117654952Y-56593470D01*
X117621184Y-56621183D01*
X117593471Y-56654951D01*
X117593468Y-56654954D01*
X117540527Y-56719463D01*
X117510590Y-56755941D01*
X117428412Y-56909687D01*
X117427732Y-56911928D01*
X117337437Y-56911928D01*
X117321589Y-56859685D01*
X117239411Y-56705939D01*
X117156532Y-56604951D01*
X117156530Y-56604949D01*
X117128817Y-56571181D01*
X117095049Y-56543468D01*
X114811323Y-54259742D01*
X115878715Y-54259742D01*
X115947904Y-54542745D01*
X116070975Y-54806812D01*
X116243198Y-55041795D01*
X116457954Y-55238664D01*
X116706991Y-55389854D01*
X116980739Y-55489554D01*
X116993110Y-55491476D01*
X117223000Y-55370155D01*
X117223000Y-54027000D01*
X116022768Y-54027000D01*
X115878715Y-54259742D01*
X114811323Y-54259742D01*
X114091839Y-53540258D01*
X115878715Y-53540258D01*
X116022768Y-53773000D01*
X117223000Y-53773000D01*
X117223000Y-52429845D01*
X116993110Y-52308524D01*
X116980739Y-52310446D01*
X116706991Y-52410146D01*
X116457954Y-52561336D01*
X116243198Y-52758205D01*
X116070975Y-52993188D01*
X115947904Y-53257255D01*
X115878715Y-53540258D01*
X114091839Y-53540258D01*
X113856536Y-53304956D01*
X113828819Y-53271183D01*
X113694061Y-53160589D01*
X113540315Y-53078411D01*
X113373492Y-53027805D01*
X113243479Y-53015000D01*
X113243471Y-53015000D01*
X113200002Y-53010719D01*
X113156533Y-53015000D01*
X112738072Y-53015000D01*
X112738072Y-52900000D01*
X112725812Y-52775518D01*
X112689502Y-52655820D01*
X112630537Y-52545506D01*
X112551185Y-52448815D01*
X112454494Y-52369463D01*
X112344180Y-52310498D01*
X112224482Y-52274188D01*
X112100000Y-52261928D01*
X110400000Y-52261928D01*
X110275518Y-52274188D01*
X110155820Y-52310498D01*
X110045506Y-52369463D01*
X109948815Y-52448815D01*
X109869463Y-52545506D01*
X109810498Y-52655820D01*
X109796272Y-52702717D01*
X109642046Y-52561336D01*
X109393009Y-52410146D01*
X109119261Y-52310446D01*
X109106890Y-52308524D01*
X108877000Y-52429845D01*
X108877000Y-53773000D01*
X108897000Y-53773000D01*
X108897000Y-54027000D01*
X108877000Y-54027000D01*
X108877000Y-54047000D01*
X108623000Y-54047000D01*
X108623000Y-54027000D01*
X107422768Y-54027000D01*
X107278715Y-54259742D01*
X107347904Y-54542745D01*
X107470975Y-54806812D01*
X107643198Y-55041795D01*
X107857954Y-55238664D01*
X108106991Y-55389854D01*
X108380739Y-55489554D01*
X108393110Y-55491476D01*
X108622998Y-55370156D01*
X108622998Y-55437768D01*
X108614777Y-55439403D01*
X108499215Y-55487270D01*
X108395211Y-55556763D01*
X108306763Y-55645211D01*
X108249479Y-55730943D01*
X108230537Y-55695506D01*
X108151185Y-55598815D01*
X108054494Y-55519463D01*
X107944180Y-55460498D01*
X107824482Y-55424188D01*
X107700000Y-55411928D01*
X106900000Y-55411928D01*
X106775518Y-55424188D01*
X106655820Y-55460498D01*
X106545506Y-55519463D01*
X106448815Y-55598815D01*
X106369463Y-55695506D01*
X106360932Y-55711466D01*
X106339502Y-55640820D01*
X106280537Y-55530506D01*
X106201185Y-55433815D01*
X106104494Y-55354463D01*
X105994180Y-55295498D01*
X105885000Y-55262379D01*
X105885000Y-53540258D01*
X107278715Y-53540258D01*
X107422768Y-53773000D01*
X108623000Y-53773000D01*
X108623000Y-52429845D01*
X108393110Y-52308524D01*
X108380739Y-52310446D01*
X108106991Y-52410146D01*
X107857954Y-52561336D01*
X107643198Y-52758205D01*
X107470975Y-52993188D01*
X107347904Y-53257255D01*
X107278715Y-53540258D01*
X105885000Y-53540258D01*
X105885000Y-52793465D01*
X105889281Y-52749999D01*
X105885000Y-52706533D01*
X105885000Y-52706523D01*
X105872195Y-52576510D01*
X105821589Y-52409687D01*
X105739411Y-52255941D01*
X105678076Y-52181205D01*
X105656532Y-52154953D01*
X105656530Y-52154951D01*
X105640156Y-52135000D01*
X120633422Y-52135000D01*
X120766943Y-52268521D01*
M02*
