M48
; DRILL file {KiCad 5.1.0-rc2-unknown-2768b3d~80~ubuntu18.04.1} date Pá 1. března 2019, 04:31:10 CET
; FORMAT={-:-/ absolute / inch / decimal}
; #@! TF.CreationDate,2019-03-01T04:31:10+01:00
; #@! TF.GenerationSoftware,Kicad,Pcbnew,5.1.0-rc2-unknown-2768b3d~80~ubuntu18.04.1
FMAT,2
INCH
T1C0.0315
T2C0.0394
T3C0.1378
%
G90
G05
T1
X4.6457Y-2.3917
X4.8327Y-2.0866
X5.2854Y-2.4508
X4.0535Y-2.4819
X4.1535Y-2.3819
X4.1535Y-2.5819
X4.3685Y-2.4819
X4.4685Y-2.3819
X4.4685Y-2.5819
T2
X4.2815Y-2.122
X4.3799Y-2.122
X4.9587Y-2.122
X5.0571Y-2.122
X4.6201Y-2.122
X4.7185Y-2.122
X5.2972Y-2.122
X5.3957Y-2.122
X3.6043Y-2.122
X3.7028Y-2.122
X3.2657Y-2.122
X3.3642Y-2.122
X3.9429Y-2.122
X4.0413Y-2.122
T3
X5.3976Y-2.5748
X3.4724Y-2.5236
T0
M30
